<?xml version="1.0"?>
<svg width="500" height="500" xmlns="http://www.w3.org/2000/svg" xmlns:svg="http://www.w3.org/2000/svg">
 <g class="layer">
  <title>Layer 1</title>
  <g id="freepik--background-complete--inject-280">
   <rect fill="#ebebeb" height="202.02" id="svg_4" width="131.75" x="47.54" y="45.3"/>
   <rect fill="#fff" height="89.86" id="svg_5" width="55.64" x="54.72" y="53.39"/>
   <rect fill="#fff" height="89.86" id="svg_6" width="55.63" x="116.49" y="53.39"/>
   <rect fill="#fff" height="89.86" id="svg_7" width="55.64" x="54.72" y="149.37"/>
   <rect fill="#fff" height="89.86" id="svg_8" width="55.63" x="116.49" y="149.37"/>
   <polygon fill="#ebebeb" id="svg_9" points="88.41 53.39 54.72 87.08 54.72 67.2 68.54 53.39 88.41 53.39"/>
   <polygon fill="#ebebeb" id="svg_10" points="54.72 235.91 110.36 180.27 110.36 200.13 71.27 239.23 54.72 239.23 54.72 235.91"/>
   <polygon fill="#ebebeb" id="svg_11" points="161.13 149.37 116.48 194.02 116.48 174.15 141.26 149.37 161.13 149.37"/>
   <polygon fill="#ebebeb" id="svg_12" points="172.12 118.52 172.12 138.38 167.25 143.25 147.38 143.25 172.12 118.52"/>
   <polygon fill="#ebebeb" id="svg_13" points="172.12 218.41 172.12 238.28 171.17 239.23 151.31 239.23 172.12 218.41"/>
   <polygon fill="#ebebeb" id="svg_14" points="57.91 149.37 67.84 149.37 54.72 162.49 54.72 152.55 57.91 149.37"/>
   <polygon fill="#ebebeb" id="svg_15" points="64.03 143.25 110.36 96.91 110.36 106.84 73.96 143.25 64.03 143.25"/>
   <polygon fill="#ebebeb" id="svg_16" points="163.82 53.39 116.48 100.72 116.48 90.79 153.89 53.39 163.82 53.39"/>
   <polygon fill="#ebebeb" id="svg_17" points="104.74 53.39 54.72 103.41 54.72 100.92 102.25 53.39 104.74 53.39"/>
   <polygon fill="#ebebeb" id="svg_18" points="85.82 239.23 110.36 214.68 110.36 217.17 88.31 239.23 85.82 239.23"/>
   <polygon fill="#ebebeb" id="svg_19" points="172.12 152.94 172.12 155.41 116.48 211.05 116.48 208.56 172.12 152.94"/>
   <rect fill="#ebebeb" height="202.02" id="svg_20" width="131.75" x="208.89" y="45.3"/>
   <rect fill="#fff" height="89.86" id="svg_21" width="55.64" x="216.07" y="53.39"/>
   <rect fill="#fff" height="89.86" id="svg_22" width="55.63" x="277.83" y="53.39"/>
   <rect fill="#fff" height="89.86" id="svg_23" width="55.64" x="216.07" y="149.37"/>
   <rect fill="#fff" height="89.86" id="svg_24" width="55.63" x="277.83" y="149.37"/>
   <polygon fill="#ebebeb" id="svg_25" points="216.07 149.37 221.31 149.37 216.07 154.61 216.07 149.37"/>
   <polygon fill="#ebebeb" id="svg_26" points="216.07 134.74 271.71 79.09 271.71 98.97 227.43 143.25 216.07 143.25 216.07 134.74"/>
   <polygon fill="#ebebeb" id="svg_27" points="317.29 53.39 277.83 92.85 277.83 72.97 297.41 53.39 317.29 53.39"/>
   <polygon fill="#ebebeb" id="svg_28" points="333.46 178.55 333.46 198.42 292.66 239.23 277.83 239.23 277.83 234.18 333.46 178.55"/>
   <polygon fill="#ebebeb" id="svg_29" points="271.71 53.39 271.71 55.23 216.07 110.87 216.07 100.93 263.6 53.39 271.71 53.39"/>
   <polygon fill="#ebebeb" id="svg_30" points="249.63 239.23 271.71 217.15 271.71 227.08 259.56 239.23 249.63 239.23"/>
   <polygon fill="#ebebeb" id="svg_31" points="333.46 155.39 333.46 165.33 277.83 220.96 277.83 211.03 333.46 155.39"/>
   <polygon fill="#ebebeb" id="svg_32" points="228.07 149.37 230.56 149.37 216.07 163.86 216.07 161.38 228.07 149.37"/>
   <polygon fill="#ebebeb" id="svg_33" points="234.19 143.25 271.71 105.73 271.71 108.22 236.68 143.25 234.19 143.25"/>
   <polygon fill="#ebebeb" id="svg_34" points="326.54 53.39 277.83 102.1 277.83 99.61 324.05 53.39 326.54 53.39"/>
   <polygon fill="#ebebeb" id="svg_35" points="216.07 237.36 271.71 181.72 271.71 184.2 216.68 239.23 216.07 239.23 216.07 237.36"/>
   <polygon fill="#ebebeb" id="svg_36" points="306.54 149.37 277.83 178.08 277.83 175.6 304.05 149.37 306.54 149.37"/>
   <polygon fill="#ebebeb" id="svg_37" points="333.46 119.96 333.46 122.45 312.66 143.25 310.17 143.25 333.46 119.96"/>
  </g>
  <g id="freepik--Shadows--inject-280">
   <ellipse cx="250" cy="427.7" fill="#ebebeb" id="svg_38" rx="146.96" ry="19.81"/>
   <ellipse cx="424.88" cy="427.96" fill="#ebebeb" id="svg_39" rx="41.26" ry="8.17"/>
   <ellipse cx="168.48" cy="448.49" fill="#ebebeb" id="svg_40" rx="154.02" ry="18.04"/>
  </g>
  <g id="freepik--Floor--inject-280">
   <polygon fill="#263238" id="svg_41" points="33.4 403.49 87.55 403.25 141.7 403.16 250 402.99 358.3 403.16 412.45 403.25 466.6 403.49 412.45 403.74 358.3 403.82 250 403.99 141.7 403.82 87.55 403.74 33.4 403.49"/>
  </g>
  <g id="freepik--Clock--inject-280">
   <polygon fill="#5965E0" id="svg_42" points="142.67 389.23 128.41 427.7 145.15 427.7 176.15 406.58 142.67 389.23"/>
   <polygon id="svg_43" opacity="0.1" points="142.67 389.23 128.41 427.7 145.15 427.7 176.15 406.58 142.67 389.23"/>
   <polygon fill="#5965E0" id="svg_44" points="357.33 389.23 371.59 427.7 354.85 427.7 323.85 406.58 357.33 389.23"/>
   <polygon id="svg_45" opacity="0.1" points="357.33 389.23 371.59 427.7 354.85 427.7 323.85 406.58 357.33 389.23"/>
   <circle cx="250" cy="260" fill="#5965E0" id="svg_46" r="171.05" transform="translate(-110.62 252.93) rotate(-45)"/>
   <circle cx="247.92" cy="257.19" id="svg_47" opacity="0.1" r="163.22"/>
   <circle cx="250" cy="259.27" fill="#fff" id="svg_48" r="152.91" transform="translate(-110.11 252.72) rotate(-45)"/>
   <path d="m399.42,226.79c-69.63,42.19 -184.07,111.4 -248,149.34a153,153 0 0 1 -41.79,-56.19l211.53,-196.06a153.06,153.06 0 0 1 78.26,102.91z" fill="#ebebeb" id="svg_49"/>
   <path d="m402.78,264.58a151.57,151.57 0 0 1 -10.11,49.69l-190.67,90.19a151.37,151.37 0 0 1 -24.09,-10.35c57.57,-33.29 162.85,-93.86 224.87,-129.53z" fill="#ebebeb" id="svg_50"/>
   <rect fill="#c7c7c7" height="23.18" id="svg_51" width="2.95" x="248.52" y="117.46"/>
   <rect fill="#c7c7c7" height="23.18" id="svg_52" transform="translate(-48.47 112.06) rotate(-30)" width="2.96" x="183.41" y="134.9"/>
   <rect fill="#c7c7c7" height="23.18" id="svg_53" transform="translate(-99.54 215.9) rotate(-60)" width="2.95" x="135.75" y="182.57"/>
   <rect fill="#c7c7c7" height="2.95" id="svg_54" width="23.18" x="108.19" y="257.79"/>
   <rect fill="#c7c7c7" height="2.95" id="svg_55" transform="translate(-143.82 112.08) rotate(-30)" width="23.18" x="125.63" y="322.9"/>
   <rect fill="#c7c7c7" height="2.96" id="svg_56" transform="translate(-229.77 346.38) rotate(-60.03)" width="23.18" x="173.3" y="370.57"/>
   <rect fill="#c7c7c7" height="23.18" id="svg_57" width="2.95" x="248.52" y="377.9"/>
   <rect fill="#c7c7c7" height="23.18" id="svg_58" transform="translate(-143.8 207.39) rotate(-30)" width="2.96" x="313.63" y="360.46"/>
   <rect fill="#c7c7c7" height="23.18" id="svg_59" transform="translate(-99.54 476.34) rotate(-60)" width="2.95" x="361.3" y="312.79"/>
   <rect fill="#c7c7c7" height="2.95" id="svg_60" width="23.18" x="368.63" y="257.79"/>
   <rect fill="#c7c7c7" height="2.95" id="svg_61" transform="translate(-48.48 207.43) rotate(-30)" width="23.18" x="351.19" y="192.68"/>
   <rect fill="#c7c7c7" height="2.96" id="svg_62" transform="translate(30.81 346.31) rotate(-60.03)" width="23.18" x="303.52" y="145.01"/>
   <polygon fill="#5965E0" id="svg_63" points="390.66 261.24 242.35 265.38 242.53 250.88 390.7 257.3 390.66 261.24"/>
   <polygon fill="#263238" id="svg_64" points="251.02 154.98 257.44 267.84 242.93 267.65 247.09 154.93 251.02 154.98"/>
   <circle cx="250" cy="259.27" fill="#5965E0" id="svg_65" r="4.95"/>
  </g>
  <g id="freepik--Character--inject-280">
   <path d="m386.53,259.18c-0.55,-1.66 -30,-40.55 -32,-41.29c-0.23,-0.1 -13.38,9.26 -13.38,9.26c-0.55,0.72 -25.55,-4.56 -25.55,-4.56l-0.25,30.16l45.55,-1s6.15,3.62 11.78,6.57l0,0a67.47,67.47 0 0 0 7.4,3.59c2.31,0.62 7.01,-1.08 6.45,-2.73z" fill="#dd6a57" id="svg_66"/>
   <path d="m380.11,261.94a64.69,64.69 0 0 1 -7.4,-3.59l0,0c-5.63,-3 -11.78,-6.57 -11.78,-6.57l-10.14,0.22l-15.89,-25.61c3.49,0.62 6.08,1 6.26,0.76c0,0 13.15,-9.37 13.38,-9.26c2,0.74 31.44,39.62 32,41.29s-4.15,3.35 -6.43,2.76z" fill="#fff" id="svg_67"/>
   <path d="m386.8,259.23c-0.58,-1.7 -30.14,-40.56 -32.21,-41.33c-0.78,-0.3 -7.21,3.68 -13.43,9.25l19.08,25s17.61,9.33 20,9.93s7.14,-1.15 6.56,-2.85z" fill="#a6a6a6" id="svg_68"/>
   <path d="m384.82,259.85c-5.12,-6.39 -25.15,-32.65 -29.72,-39.36c0,-0.06 0,-0.08 0,0c5.2,6.22 25,32.65 29.78,39.31c0.12,0.11 0.05,0.2 -0.06,0.05z" fill="#263238" id="svg_69"/>
   <path d="m376.91,260.67a6.54,6.54 0 0 1 -1.37,-5.1a6.33,6.33 0 0 1 2.37,-4.11s0.09,0 0.06,0.08a7.59,7.59 0 0 0 -1,9.07a0.05,0.05 0 1 1 -0.06,0.06z" fill="#263238" id="svg_70"/>
   <path d="m362.45,253.73c-2,-2.58 -3.4,-6.31 -2.5,-9.55c0,-0.13 0.22,-0.07 0.23,0a45.19,45.19 0 0 0 2.63,9.32a0.21,0.21 0 0 1 -0.36,0.23z" fill="#263238" id="svg_71"/>
   <path d="m364.77,255.14c-2,-2.58 -3.4,-6.3 -2.5,-9.54c0,-0.13 0.21,-0.08 0.23,0a45.71,45.71 0 0 0 2.62,9.31a0.2,0.2 0 0 1 -0.35,0.23z" fill="#263238" id="svg_72"/>
   <path d="m367.08,256.56c-2,-2.58 -3.4,-6.31 -2.5,-9.55c0,-0.12 0.22,-0.07 0.24,0a44.46,44.46 0 0 0 2.62,9.31a0.21,0.21 0 0 1 -0.36,0.24z" fill="#263238" id="svg_73"/>
   <path d="m369.4,258c-2,-2.58 -3.4,-6.3 -2.5,-9.54c0,-0.13 0.21,-0.08 0.23,0a45.71,45.71 0 0 0 2.62,9.31a0.2,0.2 0 0 1 -0.35,0.23z" fill="#263238" id="svg_74"/>
   <path d="m350.18,226.86c-2.22,-2.94 2.33,-6.39 4.56,-3.45s-2.34,6.38 -4.56,3.45z" fill="#263238" id="svg_75"/>
   <path d="m361.3,258.72c0.75,-2.79 0.26,-5.8 0.13,-8.63a0.4,0.4 0 0 0 -0.57,-0.31a0.08,0.08 0 0 0 -0.13,0a17.26,17.26 0 0 0 -4.87,7.44c-0.52,1.68 -0.32,4.16 1.78,4.65s3.23,-1.52 3.66,-3.15zm-2.07,1.76c-3,1.9 -2.8,-2.31 -2.37,-3.54a19.62,19.62 0 0 1 1,-2.29a51.24,51.24 0 0 1 2.74,-4.4c0,1.39 0.08,2.78 0.11,4.17c0.07,1.66 0.2,5.02 -1.48,6.06z" fill="#263238" id="svg_76"/>
   <path d="m352,241.76c-1.55,1.5 -0.44,3.72 0.87,4.89a17.19,17.19 0 0 0 8,3.87a0.09,0.09 0 0 0 0.1,-0.09a0.41,0.41 0 0 0 0.33,-0.56c-1.35,-2.49 -2.49,-5.33 -4.56,-7.33c-1.19,-1.17 -3.26,-2.2 -4.74,-0.78zm6.49,4.75c0.69,1.21 1.32,2.45 2.06,3.63a51.67,51.67 0 0 1 -4.63,-2.36a19.4,19.4 0 0 1 -2.06,-1.43c-1,-0.82 -3.37,-4.32 0.2,-4.26c2,0.04 3.62,2.98 4.45,4.42l-0.02,0z" fill="#263238" id="svg_77"/>
   <path d="m314.23,213.34l-20.44,0s-21.39,-10.28 -38.61,-6.14c-19.75,4.75 -22.28,29.55 -7.52,38.32c18.71,11.11 101.93,9 101.93,9l-17.99,-30.52s-27.68,-5.82 -52.78,-5l35.41,4.83l0,-10.49z" fill="#455a64" id="svg_78"/>
   <path d="m332.79,226a0.9,0.9 0 0 1 0,-0.16l0,-0.13c0,-0.09 -0.05,-0.19 -0.07,-0.29s-0.14,-0.4 -0.21,-0.6s-0.17,-0.39 -0.26,-0.58a3.71,3.71 0 0 0 -0.33,-0.54s0,0 -0.05,0l0,0l0,0l0,0c-3.05,-0.57 -23.73,-3.53 -26.8,-3.88s-6.21,-0.64 -9.32,-0.9a184.49,184.49 0 0 0 -18.66,-0.67l-1.75,0c-0.12,0 -0.26,-0.06 -0.38,-0.09l-0.9,-0.21c-0.56,-0.1 -1.13,-0.19 -1.69,-0.27c-1.18,-0.18 -2.36,-0.31 -3.54,-0.53c-0.07,0 -0.09,0.1 0,0.11c1.18,0.27 2.33,0.61 3.51,0.86l1,0.22c-2.28,0.12 -4.56,0.3 -6.84,0.5c-0.07,0 -0.07,0.12 0,0.12c3.1,-0.19 6.23,-0.21 9.33,-0.16s6.16,0.12 9.24,0.3c6.23,0.36 12.45,0.91 18.65,1.56c3.48,0.37 24.57,3.44 28.06,3.59l0.05,0a2.34,2.34 0 0 0 0.09,0.24l0.3,0.57c0.1,0.18 0.2,0.35 0.31,0.52l0.17,0.26l0.09,0.12s0.08,0.09 0.09,0.13s-0.04,-0.09 -0.09,-0.09z" fill="#263238" id="svg_79"/>
   <path d="m343.1,252.63c-1.1,-1.78 -2.1,-3.63 -3.1,-5.52s-2,-3.69 -3.07,-5.53c-2.05,-3.67 -9.39,-16 -10.12,-16.89c0,-0.05 -0.14,0 -0.12,0.07c0.35,1 4.94,9.14 6,11c2.11,3.65 4.33,7.22 6.52,10.83c0.62,1 1.27,2 1.9,3.06s1.31,2 1.89,3.08c0,0.02 0.14,-0.04 0.1,-0.1z" fill="#263238" id="svg_80"/>
   <path d="m326.61,227.77c-1.83,-0.45 -3.71,-0.73 -5.57,-1.08l-5.58,-1.05q-5.58,-1 -11.18,-2c-7.45,-1.26 -14.93,-2.3 -22.45,-3c-4.24,-0.4 -8.49,-0.67 -12.75,-1c-0.09,0 -0.08,0.13 0,0.14c7.57,0.34 15.13,1.36 22.63,2.44s14.83,2.24 22.23,3.49l6.26,1.07c2.12,0.37 4.24,0.82 6.37,1.09c0.09,0.03 0.13,-0.09 0.04,-0.1z" fill="#263238" id="svg_81"/>
   <path d="m347.76,358.4c-1.79,-0.18 -46.37,-20.22 -47.59,-22.06c-0.46,-0.69 2.08,-7.35 5.37,-15.32c0.72,-1.72 1.46,-3.49 2.23,-5.28c5,-11.66 10.51,-23.92 10.51,-23.92l29.86,13.32l-11.33,23.55l-2.48,5.17s13.63,15.3 14.75,17.46s0.48,7.26 -1.32,7.08z" fill="#dd6a57" id="svg_82"/>
   <path d="m347.76,358.4c-1.79,-0.18 -46.37,-20.22 -47.59,-22.06c-0.56,-0.84 3.3,-10.5 7.6,-20.6l29,12.95l-2.48,5.17s13.63,15.3 14.75,17.46s0.52,7.26 -1.28,7.08z" fill="#fff" id="svg_83"/>
   <path d="m347.76,358.4c-1.79,-0.18 -46.37,-20.22 -47.59,-22.06c-0.46,-0.69 2.08,-7.35 5.37,-15.32l28.79,12.84s13.63,15.3 14.75,17.46s0.48,7.26 -1.32,7.08z" fill="#a6a6a6" id="svg_84"/>
   <path d="m347.93,356.33c-7.39,-3.54 -37.54,-17.13 -45.11,-20.07c-0.07,0 -0.08,0 0,0c7.25,3.67 37.51,17 45.08,20.15c0.1,0.11 0.18,-0.01 0.03,-0.08z" fill="#263238" id="svg_85"/>
   <path d="m346.93,348.43a6.58,6.58 0 0 0 -5.29,-0.18a6.32,6.32 0 0 0 -3.46,3.24s0.06,0.08 0.09,0a7.59,7.59 0 0 1 8.62,-3a0.05,0.05 0 0 0 0.04,-0.06z" fill="#263238" id="svg_86"/>
   <path d="m336.89,335.9c-3,-1.38 -6.92,-1.88 -9.87,-0.27c-0.12,0.06 0,0.22 0.08,0.21a45.49,45.49 0 0 1 9.68,0.46a0.21,0.21 0 0 0 0.11,-0.4z" fill="#263238" id="svg_87"/>
   <path d="m338.79,337.84c-3,-1.38 -6.91,-1.89 -9.87,-0.28c-0.11,0.07 0,0.23 0.09,0.22a45.39,45.39 0 0 1 9.67,0.45a0.2,0.2 0 0 0 0.11,-0.39z" fill="#263238" id="svg_88"/>
   <path d="m340.7,339.78c-3,-1.39 -6.92,-1.89 -9.87,-0.28c-0.12,0.06 0,0.23 0.08,0.22a45.36,45.36 0 0 1 9.67,0.45a0.21,0.21 0 0 0 0.12,-0.39z" fill="#263238" id="svg_89"/>
   <path d="m342.6,341.72c-3,-1.39 -6.91,-1.89 -9.87,-0.28c-0.11,0.06 0,0.22 0.09,0.22a45.39,45.39 0 0 1 9.67,0.45a0.2,0.2 0 0 0 0.11,-0.39z" fill="#263238" id="svg_90"/>
   <path d="m307.91,330c-3.36,-1.5 -5.7,3.72 -2.33,5.23s5.7,-3.72 2.33,-5.23z" fill="#263238" id="svg_91"/>
   <path d="m343.71,329.38c-0.95,-1.94 -3.41,-1.57 -4.93,-0.69a17.17,17.17 0 0 0 -6.15,6.43a0.08,0.08 0 0 0 0.05,0.13a0.4,0.4 0 0 0 0.43,0.48c2.79,-0.51 5.84,-0.72 8.39,-2.08c1.5,-0.79 3.11,-2.44 2.21,-4.27zm-6.53,4.7c-1.36,0.29 -2.74,0.51 -4.09,0.85c1.2,-1.25 2.35,-2.55 3.67,-3.68a19.6,19.6 0 0 1 2,-1.53c1.1,-0.69 5.16,-1.87 4,1.52c-0.65,1.86 -3.95,2.5 -5.58,2.84z" fill="#263238" id="svg_92"/>
   <path d="m324.7,332.89c2.42,1.57 5.44,2 8.18,2.79c0.28,0.08 0.48,-0.2 0.47,-0.45a0.08,0.08 0 0 0 0.06,-0.12a17.14,17.14 0 0 0 -5.58,-6.93c-1.44,-1 -3.86,-1.59 -5,0.26s0.45,3.56 1.87,4.45zm-1.05,-2.52c-0.87,-3.47 3.08,-1.95 4.11,-1.16a19.83,19.83 0 0 1 1.86,1.69a50.73,50.73 0 0 1 3.35,4c-1.32,-0.45 -2.67,-0.79 -4,-1.19c-1.6,-0.5 -4.84,-1.42 -5.32,-3.34z" fill="#263238" id="svg_93"/>
   <path d="m308.45,313l33.55,15.18s40,-76.72 41,-100.21c0.89,-20 -13,-27.7 -58,-14.77l-11,0.14l0,7.6c4.83,0.64 17.74,2.67 17.74,2.67c9.39,3.54 12.41,5 12.26,5.31c-23.38,47.28 -35.55,84.08 -35.55,84.08z" fill="#455a64" id="svg_94"/>
   <path d="m349.53,220.48c-1.35,1.81 -2.61,3.69 -3.81,5.61a80.58,80.58 0 0 0 -22.88,-6q-3.31,-0.41 -6.66,-0.59c-0.09,0 -0.09,0.13 0,0.14a100.38,100.38 0 0 1 23.29,4.36c2.09,0.64 4.14,1.39 6.2,2.13c-1.44,2.31 -2.8,4.67 -4.1,7.05a140.2,140.2 0 0 0 -6.57,13.75c-1.08,2.59 -2.13,5.2 -3.06,7.85c0,0.08 0.1,0.13 0.13,0.05q6.17,-13.72 13.44,-26.86c1.37,-2.47 2.8,-4.91 4.14,-7.4c0.04,-0.07 -0.07,-0.15 -0.12,-0.09z" fill="#263238" id="svg_95"/>
   <path d="m342.77,320.07c-2,-0.77 -3.86,-1.72 -5.78,-2.58l-5.77,-2.59c-3.83,-1.72 -17.11,-7.22 -18.21,-7.48c-0.07,0 -0.11,0.09 -0.05,0.13c0.85,0.55 9.42,4.36 11.35,5.19c3.88,1.66 7.79,3.2 11.7,4.78c1.12,0.45 2.24,0.87 3.36,1.32s2.26,0.84 3.35,1.33c0.07,0.03 0.11,-0.08 0.05,-0.1z" fill="#263238" id="svg_96"/>
   <path d="m349.37,224c-2.65,5 -4.91,10.31 -7.21,15.51s-4.52,10.39 -6.69,15.62q-6.47,15.64 -12,31.64c-2.11,6 -4.08,12.1 -6,18.19c0,0.08 0.11,0.12 0.14,0c3.56,-10.77 7.41,-21.44 11.44,-32s8.28,-21.06 12.79,-31.43q1.9,-4.36 3.86,-8.71c1.31,-2.9 2.67,-5.78 3.9,-8.71c0,-0.18 -0.17,-0.28 -0.23,-0.11z" fill="#263238" id="svg_97"/>
   <path d="m294,215.78c0.76,0.75 47.45,0.3 47.68,0c0.61,-0.82 -6.38,-30.24 -11.63,-41.4c-6.72,-14.3 -10.27,-15.49 -12.4,-16.29a16.52,16.52 0 0 0 -8.73,-0.07c-1.32,0.59 -6.9,7.28 -8.47,12.59c-3.15,10.66 -7.12,44.51 -6.45,45.17z" fill="#5965E0" id="svg_98"/>
   <path d="m325.5,161.77c20.61,14.46 38.7,34.88 37.24,41.58c-1.54,7.08 -15.19,15.4 -27.42,17.4c-2.5,0.41 -10.89,-17.78 -8.34,-18.72c2,-0.72 11,-3.61 12.08,-4.9c0.73,-0.9 -14.08,-20.36 -19,-30.62c-5.21,-10.73 -0.06,-8.61 5.44,-4.74z" fill="#dd6a57" id="svg_99"/>
   <path d="m332.15,201.31s-7.65,1 -12.63,1.92c-2.77,0.51 -7.45,1.79 -9.32,3.1c-2.79,1.95 -13.24,11.88 -10.88,14.47c2.13,2.34 5.1,-1.57 5.1,-1.57s-3.65,4 -0.82,5.63s6.23,-3.78 6.23,-3.78s-4.17,3.94 -1,5.44c2.76,1.3 7.34,-4.58 7.34,-4.58s-4.83,3.66 -2.13,5.27c3,1.78 11,-6.17 11,-6.17a36.22,36.22 0 0 0 15.21,-1.51c0.82,-0.27 -8.1,-18.22 -8.1,-18.22z" fill="#dd6a57" id="svg_100"/>
   <path d="m308.71,222.4l0.87,-1.24a25.5,25.5 0 0 1 1.76,-2.37c0.63,-0.72 1.29,-1.41 2,-2.09s1.52,-1.35 2.22,-2.08a0.06,0.06 0 1 1 0.08,0.08a28.19,28.19 0 0 0 -2,2.25l-1.87,2.27c-0.61,0.75 -1.26,1.44 -1.89,2.17c-0.31,0.36 -0.61,0.74 -0.9,1.11a8.82,8.82 0 0 1 -0.87,1.05a0,0 0 0 1 -0.07,-0.05a6.93,6.93 0 0 1 0.67,-1.1z" fill="#263238" id="svg_101"/>
   <path d="m303.68,220.07a38.33,38.33 0 0 1 3.17,-4.46a27.36,27.36 0 0 1 3.93,-3.83a0.06,0.06 0 0 1 0.08,0.08c-1.18,1.41 -2.38,2.8 -3.57,4.18c-0.59,0.68 -3.15,3.85 -3.46,4.15c-0.08,0.07 -0.19,-0.04 -0.15,-0.12z" fill="#263238" id="svg_102"/>
   <path d="m313.39,224.72a39,39 0 0 1 3.06,-4.14a34.24,34.24 0 0 1 4,-3.4a0.06,0.06 0 0 1 0.08,0.08c-1.25,1.23 -2.52,2.43 -3.7,3.73c-0.58,0.63 -2.74,3.27 -3.35,3.82c-0.03,0.05 -0.12,-0.02 -0.09,-0.09z" fill="#263238" id="svg_103"/>
   <path d="m348.48,179.68l-15,10.43s-11.94,-17.23 -15.16,-25.47s0.22,-8.37 8.46,-2.59s21.7,17.63 21.7,17.63z" fill="#5965E0" id="svg_104"/>
   <path d="m344.93,177.6a125.53,125.53 0 0 1 -12.48,9c-0.05,0 -0.11,-0.05 -0.05,-0.09c1.14,-0.74 7.24,-5.54 12.47,-9c0.06,-0.05 0.13,0.04 0.06,0.09z" fill="#263238" id="svg_105"/>
   <path d="m334.44,189.4c-0.1,0 -0.77,0.43 -0.91,0.51c-1.8,-2.88 -3.73,-5.8 -5.56,-8.67c-0.89,-1.4 -1.79,-2.8 -2.68,-4.21s-1.78,-3 -2.79,-4.41a0,0 0 0 0 -0.07,0a46.45,46.45 0 0 0 2.23,4.1a7.37,7.37 0 0 0 -0.5,-0.61c-0.39,-0.44 -0.77,-0.88 -1.13,-1.34c-0.06,-0.08 -0.18,0 -0.12,0.07c0.34,0.45 0.65,0.91 0.95,1.38s0.64,0.92 1,1.37s0.67,0.84 1,1.25l0.13,0.15c0.49,0.84 1,1.68 1.49,2.51c1.8,2.9 5.87,8.73 5.92,8.71a8.41,8.41 0 0 0 1.08,-0.77s0.01,-0.05 -0.04,-0.04z" fill="#263238" id="svg_106"/>
   <path d="m300.28,162c-16.06,9 -31,19.84 -33.7,27.1c-1.66,4.57 0.84,12.67 2.82,17.53c1,2.36 23.25,-7.69 21.31,-9.61c-4.8,-4.76 -5.61,-6.71 -5.14,-7.72c0.29,-0.64 17.66,-16.74 22.44,-23.89c6.67,-9.97 -0.71,-7.34 -7.73,-3.41z" fill="#dd6a57" id="svg_107"/>
   <path d="m300,218.9c-2.1,1.27 -4.78,-4.16 -4.78,-4.16a4.51,4.51 0 0 1 -1.17,2.84c-1.31,1.31 -3.95,-0.17 -3.95,-0.17a5.6,5.6 0 0 1 -1.71,2.8c-1.39,1.13 -4.26,0 -4.26,0a4.93,4.93 0 0 1 -3.06,1.51c-3.13,0.2 -5.92,-3.69 -7.72,-6.15s-4.6,-11.1 -5.3,-12.7l15.66,-11.68s11.2,8.71 12.9,11.9c1.39,2.71 6.55,13.91 3.39,15.81z" fill="#dd6a57" id="svg_108"/>
   <path d="m295.21,214.66a40.7,40.7 0 0 0 -4,-9.13c0,-0.06 -0.13,0 -0.1,0.06c1.61,2.86 2.5,6.21 4,9.13a0.08,0.08 0 0 0 0.1,-0.06z" fill="#263238" id="svg_109"/>
   <path d="m290.22,217.21a8.37,8.37 0 0 0 -1.05,-2c-0.42,-0.69 -0.86,-1.36 -1.3,-2q-1.33,-2 -2.77,-4c0,-0.06 -0.14,0 -0.1,0c0.89,1.34 1.75,2.69 2.58,4.07c0.41,0.69 0.82,1.38 1.22,2.07a11,11 0 0 0 1.23,1.92a0.11,0.11 0 0 0 0.19,-0.06z" fill="#263238" id="svg_110"/>
   <path d="m284.05,220.17a6,6 0 0 0 -1.05,-1.76l-1.24,-1.82c-0.82,-1.21 -1.64,-2.43 -2.42,-3.67c0,-0.07 -0.14,0 -0.1,0.05c0.78,1.27 1.55,2.55 2.35,3.81c0.39,0.62 0.78,1.24 1.18,1.85a5.72,5.72 0 0 0 1.22,1.58a0,0 0 0 0 0.06,-0.04z" fill="#263238" id="svg_111"/>
   <path d="m277.1,175.5l12.34,11.33s15.27,-14.43 19.56,-22.17s0.91,-8.32 -8,-3.71s-23.9,14.55 -23.9,14.55z" fill="#5965E0" id="svg_112"/>
   <path d="m277.1,175.5l12.34,11.33s15.27,-14.43 19.56,-22.17s0.91,-8.32 -8,-3.71s-23.9,14.55 -23.9,14.55z" fill="#5965E0" id="svg_113"/>
   <path d="m291.83,183.69a117.14,117.14 0 0 1 -10.89,-10.17c-0.05,0 0,-0.11 0.07,-0.06c0.92,0.94 6.62,5.84 10.9,10.15c0.09,0.05 -0.03,0.12 -0.08,0.08z" fill="#263238" id="svg_114"/>
   <path d="m301.89,167.75c-0.56,1.3 -1.12,2.6 -1.58,3.94a2.44,2.44 0 0 0 0,-0.27a18.15,18.15 0 0 1 0.29,-2.42c0,-0.09 -0.12,-0.12 -0.13,0c-0.16,0.8 -0.3,1.61 -0.4,2.43c-0.05,0.39 -0.07,0.78 -0.09,1.17c0,0 0,0.09 0,0.14l0,0c-0.52,1.78 -0.83,3.59 -1.27,5.38c0,0.09 0.12,0.12 0.14,0c0.43,-1.76 1.08,-3.47 1.64,-5.19s1,-3.47 1.53,-5.19c-0.02,-0.01 -0.1,-0.05 -0.13,0.01z" fill="#263238" id="svg_115"/>
   <path d="m310.26,166.08c2.65,0.64 7.22,-3.4 9,-6.67c0.12,-0.23 -0.21,-2.6 -0.48,-5.51c-0.16,-1.76 -0.29,-3.73 -0.29,-5.53c0,-0.37 -11.32,2.7 -11.32,2.7a28.92,28.92 0 0 1 1.06,6.93a3.5,3.5 0 0 1 -0.08,0.74a0.74,0.74 0 0 1 0,0.12c-0.22,1.41 -0.45,6.6 2.11,7.22z" fill="#dd6a57" id="svg_116"/>
   <path d="m317.83,148.41c-0.54,3.05 -2.47,10.41 -8.51,10.52a6,6 0 0 1 -1.15,-0.07c0,-0.05 0,-0.08 0,-0.12a4.4,4.4 0 0 0 0.09,-0.74a28.69,28.69 0 0 0 -1.07,-6.93s8.18,-2.22 10.64,-2.66z" fill="#263238" id="svg_117"/>
   <path d="m317.92,133.42c2,3.69 2.19,15.47 -0.1,18.56c-3.32,4.49 -9.89,6.17 -14,1.92s-4,-19.47 -1.3,-22.4c3.94,-4.32 12.48,-3.5 15.4,1.92z" fill="#dd6a57" id="svg_118"/>
   <path d="m318.08,151.81l0,0" fill="none" id="svg_119" stroke="#f5a79e" stroke-linecap="round" stroke-linejoin="round" stroke-width="0px"/>
   <path d="m309,143.94s0.06,0 0.06,0.07c0,0.8 0.12,1.71 0.84,2c0,0 0,0 0,0c-0.9,-0.1 -1.05,-1.31 -0.9,-2.07z" fill="#263238" id="svg_120"/>
   <path d="m309.67,143.1c1.27,-0.12 1.43,2.43 0.25,2.55s-1.32,-2.44 -0.25,-2.55z" fill="#263238" id="svg_121"/>
   <path d="m304.55,144.24s-0.06,0 -0.06,0.07c0.08,0.79 0,1.71 -0.67,2c0,0 0,0 0,0c0.87,-0.12 0.92,-1.31 0.73,-2.07z" fill="#263238" id="svg_122"/>
   <path d="m303.79,143.45c-1.28,0 -1.22,2.55 0,2.56s1.07,-2.54 0,-2.56z" fill="#263238" id="svg_123"/>
   <path d="m310.73,141c-0.36,0 -0.7,-0.07 -1.05,-0.11a1.69,1.69 0 0 1 -1.05,-0.31a0.56,0.56 0 0 1 -0.07,-0.66a1.35,1.35 0 0 1 1.29,-0.45a2,2 0 0 1 1.3,0.56a0.58,0.58 0 0 1 -0.42,0.97z" fill="#263238" id="svg_124"/>
   <path d="m302.5,141.66a8.36,8.36 0 0 0 1,-0.33a1.66,1.66 0 0 0 1,-0.52a0.54,0.54 0 0 0 -0.07,-0.66a1.33,1.33 0 0 0 -1.43,-0.15a2,2 0 0 0 -1.16,0.83a0.58,0.58 0 0 0 0.66,0.83z" fill="#263238" id="svg_125"/>
   <path d="m310.75,151.22c-0.18,0.2 -0.35,0.47 -0.64,0.51a2.14,2.14 0 0 1 -0.86,-0.15s-0.05,0 0,0a1.06,1.06 0 0 0 1,0.37a0.84,0.84 0 0 0 0.58,-0.74s-0.05,-0.02 -0.08,0.01z" fill="#263238" id="svg_126"/>
   <path d="m309.77,148.9a2.69,2.69 0 0 1 -1.72,1.31a3.9,3.9 0 0 1 -1,0.11l-0.19,0l-0.17,0a0.2,0.2 0 0 1 -0.17,-0.17l0,0l0,-0.15l0,0l0,0c-0.06,-0.61 -0.05,-1.54 -0.05,-1.54c-0.22,0.12 -1.32,0.7 -1.33,0.38a41.28,41.28 0 0 1 0.55,-8.22a0.08,0.08 0 0 1 0.15,0c0.1,2.55 -0.24,5.09 -0.18,7.65a5.09,5.09 0 0 1 1.25,-0.47c0.09,0 0,1.8 0,2.07l0,0a3.78,3.78 0 0 0 2.74,-1c0.1,-0.08 0.17,-0.03 0.12,0.03z" fill="#263238" id="svg_127"/>
   <path d="m307.42,150a3.25,3.25 0 0 0 1.34,0.92a1.47,1.47 0 0 0 0.88,0c0.62,-0.21 0.6,-0.79 0.46,-1.28a3.51,3.51 0 0 0 -0.33,-0.74a4.14,4.14 0 0 1 -2.35,1.1z" fill="#263238" id="svg_128"/>
   <path d="m308.76,150.9a1.47,1.47 0 0 0 0.88,0c0.62,-0.21 0.6,-0.79 0.46,-1.28a1.5,1.5 0 0 0 -1.34,1.28z" fill="#ff98b9" id="svg_129"/>
   <path d="m301.69,136.77c4.17,2.18 9,-2.44 9,-2.44a4.22,4.22 0 0 0 4.57,2.15s1.53,6.44 3.24,6.22c2.62,-0.33 2.38,-9.32 1.35,-11a4.74,4.74 0 0 0 -3.31,-1.84a4.36,4.36 0 0 0 -2.09,-2.38c-2,-1.16 -7.91,1.42 -7.91,1.42a5.78,5.78 0 0 0 -1.84,-2a1.64,1.64 0 0 0 -2.31,0.49a3.72,3.72 0 0 1 0.82,1.54c0.54,1.87 -1,2.05 -1.21,0.32a2.7,2.7 0 0 1 0.39,-1.86c-0.9,-1 -2.2,-1.26 -2.89,-0.56c-1.29,1.34 -1.27,8.17 2.19,9.94z" fill="#263238" id="svg_130"/>
   <path d="m303.21,147.75c-1.19,0.08 -2.26,-1.31 -2.38,-3.1s0.73,-3.33 1.92,-3.41s2.25,1.31 2.38,3.1s-0.73,3.32 -1.92,3.41zm-0.43,-6.07c-0.95,0.06 -1.63,1.38 -1.52,2.94s1,2.76 1.92,2.69s1.63,-1.38 1.51,-2.94s-0.97,-2.76 -1.91,-2.69z" fill="#5965E0" id="svg_131"/>
   <path d="m310.5,147.23a3.27,3.27 0 1 1 2.81,-3.47a3.17,3.17 0 0 1 -2.81,3.47zm-0.43,-6.08a2.84,2.84 0 1 0 2.81,2.64a2.74,2.74 0 0 0 -2.81,-2.64z" fill="#5965E0" id="svg_132"/>
   <path d="m307.36,143.89c-1.67,-0.46 -2.37,0.13 -2.37,0.13l-0.3,-0.32s0.86,-0.76 2.78,-0.23l-0.11,0.42z" fill="#5965E0" id="svg_133"/>
   <path d="m313.07,143.49l-0.11,-0.43c0.28,-0.07 6.83,-1.77 7.55,-1.86a7.83,7.83 0 0 1 2.81,0.87l-0.18,0.39a8.4,8.4 0 0 0 -2.54,-0.83l0,0c-0.6,0.07 -5.18,1.25 -7.53,1.86z" fill="#5965E0" id="svg_134"/>
   <path d="m317.35,143.16s1.91,-4.15 3.75,-3.53s0.86,6.31 -1,7.4a2,2 0 0 1 -2.87,-0.6l0.12,-3.27z" fill="#dd6a57" id="svg_135"/>
   <path d="m320.78,141.26a0,0 0 0 1 0,0.05a5.1,5.1 0 0 0 -2,3.62a1.12,1.12 0 0 1 1.6,-0.59s0,0.08 0,0.08a1.24,1.24 0 0 0 -1.27,0.67a5.91,5.91 0 0 0 -0.46,1.21c0,0.13 -0.27,0.11 -0.25,0l0,0c-0.4,-1.83 0.53,-4.53 2.38,-5.04z" fill="#263238" id="svg_136"/>
   <path d="m320.68,160.2a53,53 0 0 1 -3.8,4.51a8.69,8.69 0 0 1 -4.74,2.74c-1.78,0.24 -3.58,0 -4.33,-2.22a13,13 0 0 1 -0.37,-5.74c0,-0.1 -0.13,-0.12 -0.14,0c-0.29,2.89 -0.53,7.34 2.12,8.22c3,1 5.75,-0.63 7.71,-2.73a27.31,27.31 0 0 0 3.61,-4.72s-0.03,-0.09 -0.06,-0.06z" fill="#263238" id="svg_137"/>
   <rect fill="#263238" height="2.41" id="svg_138" width="53.65" x="284.89" y="225.44"/>
   <polygon fill="#263238" id="svg_139" points="324.77 227.84 272.48 227.84 268.13 192.33 320.41 192.33 324.77 227.84"/>
   <path d="m299.63,210.09a3.11,3.11 0 0 1 -3.13,3.18a3.26,3.26 0 0 1 -3.24,-3.18a3.12,3.12 0 0 1 3.13,-3.19a3.26,3.26 0 0 1 3.24,3.19z" fill="#fff" id="svg_140"/>
  </g>
  <g id="freepik--Calendar--inject-280">
   <polygon fill="#a6a6a6" id="svg_141" points="290.23 450.19 97.34 450.19 63.63 310.22 256.52 310.22 290.23 450.19"/>
   <polygon fill="#dbdbdb" id="svg_142" points="29.36 450.19 222.25 450.19 255.96 310.22 63.07 310.22 29.36 450.19" transform="matrix(1 0 0 1 0 0)"/>
   <polygon fill="#fff" id="svg_143" points="227.99 336.52 223.69 354.4 223.43 355.5 218.98 374.07 218.72 375.17 214.27 393.72 214 394.82 209.54 413.38 209.28 414.49 204.92 432.67 63.31 432.67 67.67 414.49 67.93 413.38 72.39 394.82 72.66 393.72 77.11 375.17 77.38 374.07 81.83 355.5 82.09 354.4 86.39 336.52 227.99 336.52" transform="matrix(1 0 0 1 0 0)"/>
   <polygon fill="#ebebeb" id="svg_144" points="107.13 336.52 102.83 354.4 102.57 355.5 98.12 374.07 97.86 375.17 93.41 393.72 93.14 394.82 88.69 413.38 88.42 414.49 84.06 432.67 82.93 432.67 87.3 414.49 87.56 413.38 92.01 394.82 92.28 393.72 96.72 375.17 96.99 374.07 101.45 355.5 101.71 354.4 105.99 336.52 107.13 336.52"/>
   <polygon fill="#ebebeb" id="svg_145" points="127.3 336.52 123 354.4 122.74 355.5 118.29 374.07 118.03 375.17 113.58 393.72 113.31 394.82 108.86 413.38 108.59 414.49 104.23 432.67 103.1 432.67 107.47 414.49 107.73 413.38 112.18 394.82 112.45 393.72 116.89 375.17 117.16 374.07 121.62 355.5 121.88 354.4 126.16 336.52 127.3 336.52"/>
   <polygon fill="#ebebeb" id="svg_146" points="147.48 336.52 143.19 354.4 142.92 355.5 138.47 374.07 138.21 375.17 133.76 393.72 133.5 394.82 129.04 413.38 128.77 414.49 124.41 432.67 123.28 432.67 127.65 414.49 127.92 413.38 132.36 394.82 132.63 393.72 137.08 375.17 137.34 374.07 141.8 355.5 142.06 354.4 146.35 336.52 147.48 336.52"/>
   <polygon fill="#ebebeb" id="svg_147" points="167.65 336.52 163.36 354.4 163.09 355.5 158.64 374.07 158.38 375.17 153.93 393.72 153.67 394.82 149.21 413.38 148.94 414.49 144.58 432.67 143.45 432.67 147.82 414.49 148.09 413.38 152.53 394.82 152.8 393.72 157.25 375.17 157.51 374.07 161.97 355.5 162.23 354.4 166.52 336.52 167.65 336.52"/>
   <polygon fill="#ebebeb" id="svg_148" points="187.83 336.52 183.54 354.4 183.27 355.5 178.83 374.07 178.56 375.17 174.11 393.72 173.85 394.82 169.39 413.38 169.13 414.49 164.77 432.67 163.63 432.67 168 414.49 168.27 413.38 172.72 394.82 172.98 393.72 177.43 375.17 177.69 374.07 182.15 355.5 182.41 354.4 186.7 336.52 187.83 336.52"/>
   <polygon fill="#ebebeb" id="svg_149" points="208 336.52 203.71 354.4 203.44 355.5 199 374.07 198.73 375.17 194.28 393.72 194.02 394.82 189.56 413.38 189.3 414.49 184.94 432.67 183.8 432.67 188.17 414.49 188.44 413.38 192.89 394.82 193.15 393.72 197.6 375.17 197.86 374.07 202.32 355.5 202.59 354.4 206.87 336.52 208 336.52"/>
   <polygon fill="#ebebeb" id="svg_150" points="223.69 354.4 223.43 355.5 81.83 355.5 82.09 354.4 223.69 354.4"/>
   <polygon fill="#ebebeb" id="svg_151" points="218.98 374.07 218.72 375.17 77.11 375.17 77.38 374.07 218.98 374.07"/>
   <polygon fill="#ebebeb" id="svg_152" points="214.27 393.72 214 394.82 72.39 394.82 72.66 393.72 214.27 393.72"/>
   <polygon fill="#ebebeb" id="svg_153" points="209.54 413.38 209.28 414.49 67.67 414.49 67.93 413.38 209.54 413.38"/>
   <rect fill="#c7c7c7" height="19.62" id="svg_154" transform="translate(-218.12 151.2) rotate(-38.92)" width="2.73" x="103.54" y="374.46"/>
   <rect fill="#c7c7c7" height="2.73" id="svg_155" transform="translate(-231.63 170.89) rotate(-42.35)" width="23.08" x="93.22" y="383.04"/>
   <rect fill="#c7c7c7" height="19.62" id="svg_156" transform="translate(-196.17 175.08) rotate(-38.92)" width="2.73" x="148.31" y="355.33"/>
   <rect fill="#c7c7c7" height="2.73" id="svg_157" transform="translate(-207.06 196.05) rotate(-42.35)" width="23.08" x="137.98" y="363.92"/>
   <polygon fill="#5965E0" id="svg_158" points="88.1 373.73 82.89 364.62 85.26 363.26 88.52 368.96 100.4 354.63 102.5 356.37 88.1 373.73"/>
   <polygon fill="#5965E0" id="svg_159" points="113.31 431.63 108.1 422.52 110.47 421.16 113.72 426.86 125.6 412.53 127.7 414.27 113.31 431.63"/>
   <path d="m185,376a32.15,32.15 0 0 0 -6.92,5.12c-2,2 -3.75,4.43 -4,7.16a4.71,4.71 0 0 0 0.92,3.63a6.64,6.64 0 0 0 3.41,1.89a18,18 0 0 0 8.28,-0.21a18.35,18.35 0 0 0 7.51,-3.51a10.29,10.29 0 0 0 2.61,-3.12a6.52,6.52 0 0 0 0.81,-3.8a4.85,4.85 0 0 0 -2.09,-3.2a10.59,10.59 0 0 0 -3.81,-1.65a17.76,17.76 0 0 0 -8.51,0.09a17,17 0 0 1 8.66,-0.8a11.27,11.27 0 0 1 4.2,1.59a6,6 0 0 1 2.68,3.77a7.26,7.26 0 0 1 -0.82,4.58a11.58,11.58 0 0 1 -2.87,3.56a20.35,20.35 0 0 1 -17,4a7.83,7.83 0 0 1 -4,-2.35a4.86,4.86 0 0 1 -1,-2.21a7.72,7.72 0 0 1 0,-2.35c0.46,-3.11 2.45,-5.6 4.61,-7.53a29.42,29.42 0 0 1 7.33,-4.66z" fill="#5965E0" id="svg_160"/>
   <polygon fill="#c7c7c7" id="svg_161" points="102.7 341.5 87.66 341.5 88.08 339.66 103.12 339.66 102.7 341.5"/>
   <polygon fill="#c7c7c7" id="svg_162" points="95.78 344.64 86.94 344.64 87.36 342.81 96.2 342.81 95.78 344.64"/>
   <polygon fill="#c7c7c7" id="svg_163" points="163.83 399.28 154.68 399.28 155.1 397.45 164.25 397.45 163.83 399.28"/>
   <polygon fill="#c7c7c7" id="svg_164" points="162.38 405.69 153.23 405.69 153.65 403.86 162.81 403.86 162.38 405.69"/>
   <polygon fill="#c7c7c7" id="svg_165" points="168.3 402.43 153.95 402.43 154.38 400.59 168.72 400.59 168.3 402.43"/>
   <polygon fill="#c7c7c7" id="svg_166" points="187.53 385.15 178.38 385.15 178.8 383.31 187.96 383.31 187.53 385.15"/>
   <polygon fill="#c7c7c7" id="svg_167" points="192 388.29 177.65 388.29 178.08 386.46 192.42 386.46 192 388.29"/>
   <path d="m69.1,319.78a5.08,5.08 0 0 1 -3.72,-1.78c-1,-1.15 -2.41,-3.79 -1,-8.58c1.33,-4.39 4.52,-6.2 7,-5.73c1.9,0.36 4,2.29 3.63,6.54a1.18,1.18 0 0 1 -1.3,1.1a1.22,1.22 0 0 1 -1.1,-1.31c0.19,-2.21 -0.46,-3.73 -1.68,-4c-1.38,-0.26 -3.34,1.07 -4.24,4.06c-0.82,2.73 -0.65,5 0.49,6.31a2.52,2.52 0 0 0 2.05,1a1.21,1.21 0 1 1 0.33,2.39a4,4 0 0 1 -0.46,0z" fill="#a6a6a6" id="svg_189"/>
   <path d="m84,319.78a5.06,5.06 0 0 1 -3.76,-1.78c-1,-1.15 -2.41,-3.79 -1,-8.58c1.32,-4.39 4.52,-6.2 7,-5.73c1.9,0.36 4,2.29 3.63,6.54a1.19,1.19 0 0 1 -1.3,1.1a1.22,1.22 0 0 1 -1.07,-1.33c0.19,-2.21 -0.46,-3.73 -1.68,-4c-1.39,-0.26 -3.34,1.07 -4.24,4.06c-0.83,2.73 -0.65,5 0.49,6.31a2.52,2.52 0 0 0 2.05,1a1.21,1.21 0 1 1 0.33,2.39a4.07,4.07 0 0 1 -0.45,0.02z" fill="#a6a6a6" id="svg_190"/>
   <path d="m98.81,319.78a5.06,5.06 0 0 1 -3.71,-1.78c-1,-1.15 -2.41,-3.79 -1,-8.58c1.32,-4.39 4.52,-6.2 7,-5.73c1.9,0.36 4,2.29 3.63,6.54a1.19,1.19 0 0 1 -1.3,1.1a1.21,1.21 0 0 1 -1.1,-1.31c0.19,-2.21 -0.46,-3.73 -1.69,-4s-3.33,1.07 -4.23,4.06c-0.83,2.73 -0.65,5 0.49,6.31a2.52,2.52 0 0 0 2,1a1.21,1.21 0 1 1 0.33,2.39a4.07,4.07 0 0 1 -0.42,0z" fill="#a6a6a6" id="svg_191"/>
   <path d="m113.67,319.78a5,5 0 0 1 -3.67,-1.78c-1,-1.15 -2.42,-3.79 -1,-8.58c1.32,-4.39 4.52,-6.2 7,-5.73c1.9,0.36 4,2.29 3.64,6.54a1.2,1.2 0 1 1 -2.4,-0.21c0.18,-2.21 -0.46,-3.73 -1.69,-4s-3.33,1.07 -4.23,4.06c-0.83,2.73 -0.65,5 0.49,6.31a2.51,2.51 0 0 0 2,1a1.21,1.21 0 1 1 0.33,2.39a4.19,4.19 0 0 1 -0.47,0z" fill="#a6a6a6" id="svg_192"/>
   <path d="m128.53,319.78a5.08,5.08 0 0 1 -3.72,-1.83c-1,-1.15 -2.41,-3.79 -1,-8.58c1.32,-4.39 4.52,-6.2 7,-5.73c1.9,0.36 4,2.29 3.64,6.54a1.2,1.2 0 1 1 -2.4,-0.21c0.18,-2.21 -0.46,-3.73 -1.69,-4s-3.33,1.07 -4.23,4.06c-0.83,2.73 -0.66,5 0.49,6.31a2.5,2.5 0 0 0 2,1a1.21,1.21 0 1 1 0.33,2.39a4.19,4.19 0 0 1 -0.42,0.05z" fill="#a6a6a6" id="svg_193"/>
   <path d="m143.39,319.78a5.08,5.08 0 0 1 -3.72,-1.83c-1,-1.15 -2.41,-3.79 -1,-8.58c1.32,-4.39 4.52,-6.2 7,-5.73c1.9,0.36 4,2.29 3.64,6.54a1.2,1.2 0 0 1 -1.31,1.1a1.22,1.22 0 0 1 -1.1,-1.31c0.19,-2.21 -0.45,-3.73 -1.68,-4c-1.38,-0.26 -3.34,1.07 -4.24,4.06c-0.82,2.73 -0.65,5 0.49,6.31a2.53,2.53 0 0 0 2.05,1a1.21,1.21 0 0 1 0.33,2.39a3.91,3.91 0 0 1 -0.46,0.05z" fill="#a6a6a6" id="svg_194"/>
   <path d="m158.25,319.78a5.08,5.08 0 0 1 -3.72,-1.83c-1,-1.15 -2.41,-3.79 -1,-8.58c1.33,-4.39 4.53,-6.2 7,-5.73c1.9,0.36 4,2.29 3.64,6.54a1.2,1.2 0 0 1 -1.31,1.1a1.22,1.22 0 0 1 -1.1,-1.31c0.19,-2.21 -0.46,-3.73 -1.68,-4c-1.38,-0.26 -3.34,1.07 -4.24,4.06c-0.82,2.73 -0.65,5 0.49,6.31a2.52,2.52 0 0 0 2,1a1.21,1.21 0 1 1 0.33,2.39a4,4 0 0 1 -0.41,0.05z" fill="#a6a6a6" id="svg_195"/>
   <path d="m173.11,319.78a5.08,5.08 0 0 1 -3.72,-1.83c-1,-1.15 -2.41,-3.79 -1,-8.58c1.33,-4.39 4.52,-6.2 7,-5.73c1.9,0.36 4,2.29 3.63,6.54a1.18,1.18 0 0 1 -1.3,1.1a1.22,1.22 0 0 1 -1.1,-1.31c0.19,-2.21 -0.46,-3.73 -1.68,-4c-1.38,-0.26 -3.34,1.07 -4.24,4.06c-0.82,2.73 -0.65,5 0.49,6.31a2.52,2.52 0 0 0 2.05,1a1.21,1.21 0 0 1 0.33,2.39a4,4 0 0 1 -0.46,0.05z" fill="#a6a6a6" id="svg_196"/>
   <path d="m188,319.78a5.06,5.06 0 0 1 -3.71,-1.83c-1,-1.15 -2.41,-3.79 -1,-8.58c1.32,-4.39 4.52,-6.2 7,-5.73c1.9,0.36 4,2.29 3.63,6.54a1.19,1.19 0 0 1 -1.3,1.1a1.21,1.21 0 0 1 -1.1,-1.31c0.19,-2.21 -0.46,-3.73 -1.69,-4s-3.33,1.07 -4.23,4.06c-0.83,2.73 -0.65,5 0.49,6.31a2.52,2.52 0 0 0 2,1a1.21,1.21 0 1 1 0.33,2.39a4.07,4.07 0 0 1 -0.42,0.05z" fill="#a6a6a6" id="svg_197"/>
   <path d="m202.82,319.78a5,5 0 0 1 -3.71,-1.83c-1,-1.15 -2.42,-3.79 -1,-8.58c1.32,-4.39 4.52,-6.2 7,-5.73c1.91,0.36 4,2.29 3.64,6.54a1.19,1.19 0 0 1 -1.3,1.1a1.21,1.21 0 0 1 -1.1,-1.31c0.18,-2.21 -0.46,-3.73 -1.69,-4c-1.38,-0.26 -3.33,1.07 -4.23,4.06c-0.83,2.73 -0.65,5 0.49,6.31a2.52,2.52 0 0 0 2.05,1a1.21,1.21 0 0 1 0.33,2.39a4.07,4.07 0 0 1 -0.48,0.05z" fill="#a6a6a6" id="svg_198"/>
   <path d="m217.68,319.78a5.08,5.08 0 0 1 -3.68,-1.78c-1,-1.15 -2.41,-3.79 -1,-8.58c1.32,-4.39 4.52,-6.2 7,-5.73c1.9,0.36 4,2.29 3.64,6.54a1.19,1.19 0 0 1 -1.3,1.1a1.2,1.2 0 0 1 -1.1,-1.31c0.18,-2.21 -0.46,-3.73 -1.69,-4s-3.33,1.07 -4.23,4.06c-0.83,2.73 -0.65,5 0.49,6.31a2.51,2.51 0 0 0 2,1a1.21,1.21 0 1 1 0.33,2.39a4.19,4.19 0 0 1 -0.46,0z" fill="#a6a6a6" id="svg_199"/>
   <path d="m232.54,319.78a5.08,5.08 0 0 1 -3.72,-1.83c-1,-1.15 -2.41,-3.79 -1,-8.58c1.32,-4.39 4.52,-6.2 7,-5.73c1.9,0.36 4,2.29 3.64,6.54a1.2,1.2 0 1 1 -2.4,-0.21c0.18,-2.21 -0.46,-3.73 -1.69,-4c-1.38,-0.26 -3.33,1.07 -4.24,4.06c-0.82,2.73 -0.65,5 0.49,6.31a2.52,2.52 0 0 0 2,1a1.21,1.21 0 0 1 0.34,2.39a4.19,4.19 0 0 1 -0.42,0.05z" fill="#a6a6a6" id="svg_200"/>
   <path d="m247.4,319.78a5.08,5.08 0 0 1 -3.72,-1.83c-1,-1.15 -2.41,-3.79 -1,-8.58c1.32,-4.39 4.52,-6.2 7,-5.73c1.9,0.36 4,2.29 3.64,6.54a1.2,1.2 0 0 1 -1.31,1.1a1.22,1.22 0 0 1 -1.1,-1.31c0.19,-2.21 -0.46,-3.73 -1.68,-4c-1.38,-0.26 -3.33,1.07 -4.24,4.06c-0.82,2.73 -0.65,5 0.49,6.31a2.52,2.52 0 0 0 2.05,1a1.21,1.21 0 0 1 0.33,2.39a3.91,3.91 0 0 1 -0.46,0.05z" fill="#a6a6a6" id="svg_201"/>
  </g>
  <g id="freepik--Plant--inject-280">
   <path d="m414.77,330.26a78.59,78.59 0 0 1 1.81,-12.76a28.4,28.4 0 0 1 4.56,-10.76a13.69,13.69 0 0 1 8.94,-5.57c3.5,-0.43 6.78,1.13 9.4,3.34c3.25,2.73 5.73,6.35 8.06,9.85a119.36,119.36 0 0 1 7,12.19a0.12,0.12 0 0 1 -0.21,0.11a75.19,75.19 0 0 0 -6.22,-10.19a63.46,63.46 0 0 0 -7.17,-8.68c-2.4,-2.35 -5.46,-4.54 -8.94,-4.65a11,11 0 0 0 -8.74,4.5c-2.34,3 -3.52,6.71 -4.41,10.35a76.4,76.4 0 0 0 -1.85,12.15c-0.69,8.4 -0.87,16.86 -1.06,25.29q-0.16,7.15 -0.22,14.31l-0.06,7.25a44.05,44.05 0 0 1 -0.28,7a0.48,0.48 0 0 1 -0.92,0a40.75,40.75 0 0 1 -0.32,-6.63q-0.06,-3.43 -0.09,-6.87q-0.06,-6.68 -0.05,-13.36c0.05,-8.97 0.16,-17.95 0.77,-26.87z" fill="#263238" id="svg_202"/>
   <path d="m426.78,323.93c0.45,-2.38 1.25,-5.48 2.6,-7.32c2.44,-3.31 5.06,-1.87 2.63,1.79a21.89,21.89 0 0 0 -3.41,9s4.09,5.84 9,8.72c-0.21,-2.25 -0.85,-5.7 -0.41,-9c0.95,-7.21 5.31,-6.81 4.23,-1.07a49.62,49.62 0 0 0 -1,11.59a24.54,24.54 0 0 0 5.27,2.59c-0.28,-0.84 -0.58,-1.84 -0.91,-3.06c-1.76,-6.47 2.56,-8.49 2.7,-4.85a50.09,50.09 0 0 0 1.68,9.18c2.37,0.8 4.33,1.34 5.53,1.76a20.13,20.13 0 0 1 8.09,5.53a25.43,25.43 0 0 0 5.52,-7.13c-1.51,-1.3 -3.89,-3.23 -7.2,-5.57c-6.21,-4.38 -4,-9.91 0.87,-6.47c3.55,2.48 6.3,7.08 7.55,9.44a38.13,38.13 0 0 0 2.82,-12.92c-4.88,-4.57 -16.93,-10.95 -13.3,-10.95c3.27,0 10.59,4.79 13.27,6.64a34.41,34.41 0 0 0 -0.41,-3.75c-4.59,-3 -19.51,-7.69 -17.13,-9c2.61,-1.47 13,3.34 16.16,4.87a18.73,18.73 0 0 0 -2.75,-5.71c-6.35,-8.49 -17.78,-11.42 -22.77,-9.8c-3.53,1.14 -2.5,10.1 -3.26,9.8c-14.15,-5.75 -20.59,-1.72 -15.37,15.69zm34.77,-1c1,-1.21 5.66,2.36 4.32,4.32s-5.62,-2.75 -4.32,-4.31l0,-0.01zm-24.32,-7.64c1.22,0.78 -0.59,5.31 -2.48,3.94c-1.6,-1.16 1.25,-4.71 2.48,-3.93l0,-0.01z" fill="#5965E0" id="svg_203"/>
   <path d="m439.08,316.69c0.64,-1.27 1.31,-2.52 2,-3.74a22.12,22.12 0 0 1 2.35,-3.4l-0.61,-0.75c-0.08,-0.1 0.06,-0.24 0.15,-0.14c0.24,0.27 0.46,0.55 0.69,0.83a0.18,0.18 0 0 1 0.1,0.11c0.88,1 1.7,2.13 2.49,3.24a36.61,36.61 0 0 1 4.12,1.19c1.39,0.47 2.77,1 4.12,1.52c0.15,0.06 0.08,0.3 -0.07,0.23c-1.33,-0.59 -2.69,-1.16 -4.08,-1.63s-2.65,-0.79 -4,-1.16c0.43,0.61 0.85,1.22 1.26,1.85a49.08,49.08 0 0 1 7.29,3c2.46,1.17 4.83,2.53 7.19,3.89c0.13,0.08 0,0.29 -0.13,0.21a79.22,79.22 0 0 0 -7.15,-3.7c-2.28,-1.07 -4.64,-1.95 -6.94,-3c5.79,9 9.26,19.48 13.91,29.13c0.07,0.14 -0.15,0.26 -0.21,0.12c-1.42,-3.39 -3.05,-6.69 -4.6,-10c-1.38,-3 -2.74,-6 -4.13,-9c-0.4,-0.87 -0.82,-1.75 -1.24,-2.62c0.25,4.83 0.15,9.74 0.94,14.51a0.12,0.12 0 1 1 -0.24,0c-0.33,-5.16 -1.24,-10.24 -1.21,-15.43c0,0 0,0 0,-0.07q-1.47,-3 -3.16,-5.81c-1.92,4.52 -3.94,9.11 -4.83,14c0,0.15 -0.27,0.08 -0.23,-0.07c1.3,-4.86 2.51,-9.73 4.86,-14.23a55.49,55.49 0 0 0 -4.08,-5.88c-0.65,1.2 -1.47,2.34 -2.2,3.48s-1.42,2.25 -2.08,3.41a48.32,48.32 0 0 0 -3.63,7.66c-0.05,0.14 -0.29,0.07 -0.23,-0.07c1.2,-2.6 2.32,-5.18 3.58,-7.68z" fill="#263238" id="svg_204"/>
   <path d="m397.85,330.69c3.19,-4.19 6.82,-9.61 12.52,-10.37c5.5,-0.73 10.13,3.16 13.07,7.41c3.07,4.45 4.67,9.74 6.06,14.9a187.91,187.91 0 0 1 4,18.79c0.58,3.51 1,7 1.42,10.57a70.74,70.74 0 0 1 0.63,10.78c0,0.58 -0.94,0.73 -1.06,0.12c-0.56,-2.95 -0.84,-5.95 -1.22,-8.92s-0.82,-5.84 -1.32,-8.75c-1,-5.89 -2.23,-11.73 -3.71,-17.51c-1.3,-5.06 -2.49,-10.27 -4.69,-15c-2,-4.29 -5.27,-9.05 -10.06,-10.41c-6.55,-1.85 -11.94,3.86 -15.43,8.54c-0.06,0.1 -0.3,-0.03 -0.21,-0.15z" fill="#263238" id="svg_205"/>
   <path d="m377.37,337l0,0c0,0.76 0,1.52 0,2.26a13.27,13.27 0 0 1 6.2,-2.23c5.3,-0.31 4.77,3.68 1.24,3.68a20.14,20.14 0 0 0 -7.3,1.1c0.53,7 2.18,12.69 2.46,12.78a102.86,102.86 0 0 0 14,-1.1c-1.18,-2.85 -4,-6.71 -2.45,-6.93s3,3.15 3.71,6.74a67.17,67.17 0 0 0 10.29,-2.3c-2.22,-2.11 -5.68,-4.78 -4.26,-5.78s4.09,2.65 5.67,5.29a20.52,20.52 0 0 0 4.5,-2.23c-2.91,-4.74 -10.47,-6 -9.32,-9.31s8.05,1.67 11,8c3.94,-3.72 5.3,-9.17 5.13,-13.9c-3.25,-0.54 -9.58,-0.15 -9,-2.48s5.09,-1.66 8.75,-0.11a13,13 0 0 0 -1.94,-5.28c-3.23,-4.59 -14,0.53 -14,0.53s1.63,-10.52 -2.3,-12.54c-2.26,-1.16 -6.34,-1.34 -10.55,0.87c2.29,0.3 5,1.16 6.07,2.81c1.33,2.1 -1,3.1 -2.36,2.09c-1,-0.71 -2.76,-2.89 -6.14,-3.33a20.85,20.85 0 0 0 -4,4a20.38,20.38 0 0 0 -1.19,1.7a14.41,14.41 0 0 1 12.3,0.81c4.45,2.48 1.68,7.09 -2.16,5.07s-7.48,-4 -11.69,-3.17a29.48,29.48 0 0 0 -2.57,11.69a21,21 0 0 1 6.91,-2.92c4.6,-1 5.84,1.8 0.83,2.07a20,20 0 0 0 -7.83,2.12zm5.86,-7c-0.24,-1.49 3,-1.76 3.48,-0.54c0.39,1 -3.24,1.98 -3.48,0.54zm27.13,9.45c0.34,-0.79 2.45,0.22 2.2,1.21c-0.33,1.28 -2.56,-0.47 -2.2,-1.25l0,0.04zm-15.44,4.42c1.6,-0.55 3.86,3.47 2.11,4.28s-3.41,-3.86 -2.11,-4.32l0,0.04z" fill="#5965E0" id="svg_206"/>
   <path d="m377.37,337l0,0c0,0.76 0,1.52 0,2.26a13.27,13.27 0 0 1 6.2,-2.23c5.3,-0.31 4.77,3.68 1.24,3.68a20.14,20.14 0 0 0 -7.3,1.1c0.53,7 2.18,12.69 2.46,12.78a102.86,102.86 0 0 0 14,-1.1c-1.18,-2.85 -4,-6.71 -2.45,-6.93s3,3.15 3.71,6.74a67.17,67.17 0 0 0 10.29,-2.3c-2.22,-2.11 -5.68,-4.78 -4.26,-5.78s4.09,2.65 5.67,5.29a20.52,20.52 0 0 0 4.5,-2.23c-2.91,-4.74 -10.47,-6 -9.32,-9.31s8.05,1.67 11,8c3.94,-3.72 5.3,-9.17 5.13,-13.9c-3.25,-0.54 -9.58,-0.15 -9,-2.48s5.09,-1.66 8.75,-0.11a13,13 0 0 0 -1.94,-5.28c-3.23,-4.59 -14,0.53 -14,0.53s1.63,-10.52 -2.3,-12.54c-2.26,-1.16 -6.34,-1.34 -10.55,0.87c2.29,0.3 5,1.16 6.07,2.81c1.33,2.1 -1,3.1 -2.36,2.09c-1,-0.71 -2.76,-2.89 -6.14,-3.33a20.85,20.85 0 0 0 -4,4a20.38,20.38 0 0 0 -1.19,1.7a14.41,14.41 0 0 1 12.3,0.81c4.45,2.48 1.68,7.09 -2.16,5.07s-7.48,-4 -11.69,-3.17a29.48,29.48 0 0 0 -2.57,11.69a21,21 0 0 1 6.91,-2.92c4.6,-1 5.84,1.8 0.83,2.07a20,20 0 0 0 -7.83,2.12zm5.86,-7c-0.24,-1.49 3,-1.76 3.48,-0.54c0.39,1 -3.24,1.98 -3.48,0.54zm27.13,9.45c0.34,-0.79 2.45,0.22 2.2,1.21c-0.33,1.28 -2.56,-0.47 -2.2,-1.25l0,0.04zm-15.44,4.42c1.6,-0.55 3.86,3.47 2.11,4.28s-3.41,-3.86 -2.11,-4.32l0,0.04z" id="svg_207" opacity="0.1"/>
   <path d="m380.64,353.79c2.55,-3.84 5.08,-7.7 7.75,-11.46q1.86,-2.62 3.87,-5.14l-0.55,-0.16l-0.94,-0.22c-0.72,-0.16 -1.44,-0.3 -2.17,-0.41a20.76,20.76 0 0 0 -2.07,-0.22a11,11 0 0 0 -2.22,0c-0.09,0 -0.1,-0.12 0,-0.12c0.74,0.07 1.5,0 2.24,0s1.44,0.08 2.15,0.16s1.34,0.17 2,0.3l1.09,0.25a4.91,4.91 0 0 1 0.66,0.17q2.06,-2.55 4.23,-5a47.27,47.27 0 0 0 -12.74,-4.74c-0.07,0 0,-0.13 0,-0.12a44,44 0 0 1 12.93,4.61c0.8,-0.89 1.6,-1.78 2.41,-2.66s1.87,-1.95 2.69,-3c0.06,-0.07 0.16,0 0.1,0.07a46.46,46.46 0 0 0 -3.18,3.53l0,0a46.05,46.05 0 0 1 4.63,4.09c1.5,1.47 3,3 4.39,4.53c0.05,0.06 0,0.14 -0.09,0.09c-1.4,-1.54 -2.86,-3 -4.4,-4.41s-3.15,-2.71 -4.7,-4.1l0,0l-1.17,1.39c-0.19,0.24 -0.39,0.47 -0.59,0.7a0.1,0.1 0 0 1 0,0.05l-1.96,2.36a19.4,19.4 0 0 1 1.67,3.39c0.48,1.14 0.88,2.31 1.25,3.49a50.34,50.34 0 0 1 1.62,7.5c0,0.07 -0.11,0.1 -0.12,0a43.31,43.31 0 0 0 -1.8,-7.37c-0.4,-1.23 -0.87,-2.43 -1.35,-3.63s-1,-2.15 -1.4,-3.25l-1.68,2.05l-0.47,0.61a0.07,0.07 0 0 1 -0.06,0.1l0,0c-1.73,2.19 -3.39,4.44 -5,6.71a2.37,2.37 0 0 1 0.18,0.53c0.08,0.28 0.16,0.58 0.23,0.87a18,18 0 0 1 0.33,1.78c0.07,0.56 0.12,1.13 0.15,1.69a15.29,15.29 0 0 0 0.05,1.92c0,0.1 -0.14,0.1 -0.11,0a6.71,6.71 0 0 0 -0.05,-1.79c-0.06,-0.62 -0.14,-1.23 -0.25,-1.84s-0.23,-1.09 -0.36,-1.63c-0.07,-0.28 -0.14,-0.55 -0.22,-0.81s-0.11,-0.3 -0.15,-0.45c-0.75,1.07 -1.5,2.14 -2.24,3.23c-1.47,2.14 -2.92,4.29 -4.38,6.44c-0.1,0.13 -0.27,0.03 -0.2,-0.08z" fill="#263238" id="svg_208"/>
   <path d="m413.73,376.54c0.06,-2 0.37,-3.94 0.58,-5.89s0.43,-3.92 0.64,-5.89a89.81,89.81 0 0 1 1.52,-11.34a16.5,16.5 0 0 1 4.62,-8.49a7.49,7.49 0 0 1 4.53,-2.16a7.74,7.74 0 0 1 4.8,1.48a16.75,16.75 0 0 1 4.05,4.26a42.62,42.62 0 0 1 3.15,5.12c0,0.07 -0.07,0.11 -0.11,0a26.22,26.22 0 0 0 -6.82,-7.64a8.07,8.07 0 0 0 -4.3,-1.79a5.84,5.84 0 0 0 -4.17,1.66a15.67,15.67 0 0 0 -4.4,7.79a78.78,78.78 0 0 0 -1.7,10.49q-0.42,3.1 -0.82,6.23c-0.27,2.06 -0.45,4.18 -0.88,6.22a0.35,0.35 0 0 1 -0.69,-0.05z" fill="#263238" id="svg_209"/>
   <path d="m423.39,361.29a11,11 0 0 0 2.13,2.19c-0.32,-1.92 -0.71,-5.32 0.26,-7.13c1.5,-2.82 3.27,-1.42 2.38,1a20,20 0 0 0 -1.45,6.94a30.32,30.32 0 0 0 6.52,3.07a11.13,11.13 0 0 1 -0.23,-3.36c0.3,-3 2.6,-3 2,0.17a19.66,19.66 0 0 0 -0.31,3.68a67.15,67.15 0 0 0 10.16,2.29a29.67,29.67 0 0 0 4.2,-7.49c-2.44,-0.61 -7.4,-0.75 -7.3,-2.5c0.14,-2.35 5,-0.54 7.76,1.17a18.68,18.68 0 0 0 0.84,-6.34a31.81,31.81 0 0 0 -6.75,-1.12c-5,-0.43 -4.79,-3.29 -1.14,-3.22c2.7,0.05 6.11,1.7 7.72,2.55c-1.05,-6.85 -6.28,-11.25 -10.47,-11.42c-7.05,-0.28 -4.52,8.49 -4.52,8.49s-4.78,-3.36 -9.28,-3.27s-7.34,7.6 -2.52,14.3zm18.83,-12.68c-0.16,-1 3,-1.22 3.15,0c0.19,1.46 -2.99,1.01 -3.15,0zm5.06,10.29c-0.06,-0.64 1.3,-0.75 1.6,0.06c0.21,0.53 -1.54,0.58 -1.6,-0.06zm-16.93,0.6c1.06,0.15 1.67,3.95 -0.16,3.88c-1.4,-0.06 -0.74,-4 0.16,-3.88z" fill="#5965E0" id="svg_210"/>
   <path d="m431.82,363.72c0.18,-0.47 0.33,-1 0.48,-1.43c-0.13,0.49 -0.26,1 -0.35,1.47a0.07,0.07 0 1 1 -0.13,-0.04z" fill="#263238" id="svg_211"/>
   <path d="m433.68,357.62c0.33,-1 0.7,-1.94 1.08,-2.9c0.21,-0.51 0.41,-1 0.64,-1.51a5.86,5.86 0 0 1 0.63,-1.28a8.53,8.53 0 0 1 -0.57,-1.23s0,-0.07 0.06,0a13.11,13.11 0 0 1 1.37,2.13c0.2,0.33 0.39,0.67 0.58,1a9.81,9.81 0 0 1 1.19,0.19c0.42,0.07 0.84,0.16 1.26,0.25l1.26,0.3c0.41,0.09 0.82,0.23 1.25,0.3c0.09,0 0.05,0.17 0,0.13a8.55,8.55 0 0 0 -1.32,-0.35c-0.4,-0.08 -0.81,-0.15 -1.22,-0.21l-1.23,-0.15l-0.93,-0.08c0.16,0.3 0.34,0.59 0.5,0.89c0,0 0.05,0.09 0.08,0.14a3.83,3.83 0 0 1 1,0.12c0.36,0.06 0.73,0.13 1.09,0.21c0.73,0.17 1.47,0.34 2.19,0.54c1.53,0.43 3,0.92 4.54,1.41c0.08,0 0,0.15 -0.05,0.12a45.28,45.28 0 0 0 -4.56,-1.26c-0.72,-0.16 -1.44,-0.33 -2.17,-0.48l-1.08,-0.23a6.14,6.14 0 0 1 -0.85,-0.19c0.78,1.44 1.51,2.89 2.18,4.38c1.46,3.23 2.7,6.57 3.95,9.89c0,0.08 -0.1,0.13 -0.13,0a89.94,89.94 0 0 0 -4.2,-9.67l-0.85,-1.71a3.59,3.59 0 0 0 -0.08,0.35l-0.21,1.18c-0.13,0.78 -0.26,1.57 -0.38,2.36a27.88,27.88 0 0 0 -0.57,4.9c0,0.1 -0.15,0.09 -0.13,0c0.12,-0.78 0.12,-1.6 0.17,-2.39s0.11,-1.65 0.21,-2.47s0.19,-1.58 0.32,-2.37l0.21,-1.18a2.43,2.43 0 0 1 0.22,-0.85c-0.41,-0.83 -0.82,-1.66 -1.24,-2.49s-0.79,-1.54 -1.19,-2.31c-0.17,-0.33 -0.35,-0.66 -0.53,-1a12.26,12.26 0 0 1 -0.47,1.19c-0.18,0.44 -0.36,0.89 -0.55,1.33c-0.4,1 -0.78,2 -1.15,3c-0.54,1.41 -1.13,2.86 -1.56,4.33c0.4,-1.44 0.76,-2.95 1.24,-4.33z" fill="#263238" id="svg_212"/>
   <path d="m432.3,362.29c0,-0.12 0.07,-0.23 0.11,-0.34c-0.04,0.11 -0.07,0.22 -0.11,0.34z" fill="#263238" id="svg_213"/>
   <polygon fill="#37474f" id="svg_214" points="397.6 377.11 398.46 389.78 400.68 422.44 449.08 422.44 451.29 389.78 452.15 377.11 397.6 377.11"/>
   <polygon fill="#263238" id="svg_215" points="397.6 377.11 398.46 389.78 451.29 389.78 452.15 377.11 397.6 377.11"/>
   <rect fill="#37474f" height="10.24" id="svg_216" transform="translate(849.75 754.22) rotate(180)" width="61.43" x="394.16" y="371.99"/>
   <rect fill="#37474f" height="5.36" id="svg_217" width="8.5" x="436.66" y="422.44"/>
   <rect fill="#263238" height="2.68" id="svg_218" width="8.5" x="436.66" y="422.44"/>
   <rect fill="#37474f" height="5.36" id="svg_219" width="8.49" x="404.59" y="422.44"/>
   <rect fill="#263238" height="2.68" id="svg_220" width="8.49" x="404.59" y="422.44"/>
  </g>
  <g id="freepik--speech-bubble--inject-280">
   <path d="m385.92,117.17a24.77,24.77 0 0 1 -41.41,15.68l-12.4,1.82l6.2,-10.72a24.51,24.51 0 0 1 -1.7,-11.93a24.79,24.79 0 1 1 49.31,5.15z" fill="#fff" id="svg_221"/>
   <path d="m385.92,117.17a25,25 0 0 1 -5,12.57a29.06,29.06 0 0 1 -2.25,2.58a27.69,27.69 0 0 1 -2.62,2.22a24.33,24.33 0 0 1 -6,3.33a24.16,24.16 0 0 1 -10.05,1.66a21.93,21.93 0 0 1 -3.43,-0.36a25,25 0 0 1 -12.27,-6.06l0.3,0.09l-12.39,1.91l-0.9,0.13l0.46,-0.79l6.16,-10.74l0,0.42a25.09,25.09 0 0 1 31.08,-33.29a25.45,25.45 0 0 1 9.56,5.86a25,25 0 0 1 7.35,20.47zm0,0a24.53,24.53 0 0 0 -28.11,-26.82a24.33,24.33 0 0 0 -10.24,4a25.59,25.59 0 0 0 -7.41,8.09a24.41,24.41 0 0 0 -1.4,21.29l0.08,0.22l-0.11,0.2l-6.24,10.7l-0.45,-0.65l12.41,-1.74l0.18,0l0.12,0.12a24.35,24.35 0 0 0 11.87,6.11a19.9,19.9 0 0 0 3.36,0.41a24,24 0 0 0 3.39,0a24.22,24.22 0 0 0 6.62,-1.46a23.5,23.5 0 0 0 6,-3.22a28.67,28.67 0 0 0 2.62,-2.19a26.08,26.08 0 0 0 2.25,-2.56a24.85,24.85 0 0 0 5.06,-12.5z" fill="#263238" id="svg_222"/>
   <polygon fill="#5965E0" id="svg_223" points="358.36 128.73 347.78 118.02 351.33 114.5 357.52 120.76 370.37 100.62 374.58 103.31 358.36 128.73"/>
  </g>
 </g>
</svg>