<svg xmlns="http://www.w3.org/2000/svg" viewBox="0 0 500 500"><g id="freepik--background-complete--inject-242"><circle cx="393.64" cy="77.69" r="28.33" style="fill:#ebebeb"></circle><circle cx="394.94" cy="78.32" r="27.04" style="fill:#dbdbdb"></circle><circle cx="394.94" cy="78.32" r="25.33" style="fill:#fff"></circle><path d="M419.69,73c-11.53,7-30.49,18.45-41.08,24.73a25.39,25.39,0,0,1-6.92-9.3l35-32.48A25.38,25.38,0,0,1,419.69,73Z" style="fill:#ebebeb;opacity:0.5"></path><path d="M420.25,79.21a25.29,25.29,0,0,1-1.67,8.23L387,102.38a25.26,25.26,0,0,1-4-1.72C392.54,95.15,410,85.11,420.25,79.21Z" style="fill:#ebebeb;opacity:0.5"></path><rect x="394.69" y="54.83" width="0.49" height="3.84" style="fill:#c7c7c7"></rect><rect x="383.91" y="57.72" width="0.49" height="3.84" transform="translate(21.64 200.05) rotate(-30)" style="fill:#c7c7c7"></rect><rect x="376.01" y="65.62" width="0.49" height="3.84" transform="translate(129.62 359.6) rotate(-60)" style="fill:#c7c7c7"></rect><rect x="371.45" y="78.08" width="3.84" height="0.49" style="fill:#c7c7c7"></rect><rect x="374.34" y="88.86" width="3.84" height="0.49" transform="translate(5.86 200.08) rotate(-30)" style="fill:#c7c7c7"></rect><rect x="382.24" y="96.76" width="3.84" height="0.49" transform="translate(108.24 381.35) rotate(-60.03)" style="fill:#c7c7c7"></rect><rect x="394.69" y="97.97" width="0.49" height="3.84" style="fill:#c7c7c7"></rect><rect x="405.48" y="95.08" width="0.49" height="3.84" transform="translate(5.86 215.86) rotate(-30)" style="fill:#c7c7c7"></rect><rect x="413.38" y="87.19" width="0.49" height="3.84" transform="translate(129.63 402.74) rotate(-60)" style="fill:#c7c7c7"></rect><rect x="414.59" y="78.08" width="3.84" height="0.49" style="fill:#c7c7c7"></rect><rect x="411.7" y="67.29" width="3.84" height="0.49" transform="translate(21.65 215.87) rotate(-30)" style="fill:#c7c7c7"></rect><rect x="403.81" y="59.4" width="3.84" height="0.49" transform="translate(151.37 381.32) rotate(-60.03)" style="fill:#c7c7c7"></rect><polygon points="395.31 56.57 396.14 80.03 393.74 80 394.66 56.56 395.31 56.57" style="fill:#c7c7c7"></polygon><polygon points="409.92 70.14 394.14 80.21 392.99 78.1 409.61 69.57 409.92 70.14" style="fill:#a6a6a6"></polygon><path d="M395.76,78.32a.82.82,0,1,1-.82-.82A.82.82,0,0,1,395.76,78.32Z" style="fill:#c7c7c7"></path><path d="M72.59,320.16l-13.12.28-6.66.11c-2.23.05-4.47,0-6.7.06h-.44v-.45L45.61,309v-.5h.5l13.24.06c4.42,0,8.83.12,13.24.17h.28V309c0,1.9-.09,3.79-.13,5.65Zm0,0-.14-5.65c0-1.87-.11-3.71-.13-5.54l.27.27c-4.41.06-8.82.16-13.24.17l-13.24.06.5-.5,0,11.19-.45-.44c2.18,0,4.36,0,6.55,0l6.58.11Z" style="fill:#ebebeb"></path><path d="M57.82,334.27l-13.12.28-6.66.11c-2.23,0-4.47,0-6.7.06H30.9v-.45l-.06-11.19v-.5h.5l13.24.06c4.41,0,8.83.12,13.24.17h.28v.27c0,1.9-.08,3.79-.13,5.65Zm0,0-.14-5.65c0-1.87-.11-3.71-.13-5.54l.27.27c-4.41,0-8.83.16-13.24.17l-13.24.06.5-.5-.05,11.19-.45-.44c2.18,0,4.36,0,6.55.05l6.58.11Z" style="fill:#ebebeb"></path><path d="M331,170l-13.12.28-6.66.11c-2.23.05-4.46,0-6.7.05H304V170L304,158.84v-.5h.5l13.24.06c4.42,0,8.83.11,13.24.17h.28v.27c0,1.9-.09,3.79-.13,5.65Zm0,0-.14-5.66c0-1.86-.11-3.7-.13-5.53l.27.27c-4.41,0-8.82.16-13.24.16l-13.24.07.5-.5L304.93,170l-.45-.45c2.19,0,4.36,0,6.55.06l6.58.11Z" style="fill:#ebebeb"></path><path d="M316.19,184.14l-13.12.28-6.66.11c-2.23.05-4.47,0-6.7.05h-.44v-.45L289.21,173v-.5h.5l13.24.06c4.42,0,8.83.11,13.24.17h.28V173c0,1.9-.09,3.78-.14,5.65Zm0,0-.14-5.66c0-1.86-.11-3.7-.13-5.53l.27.27c-4.41.05-8.82.16-13.24.16l-13.24.07.5-.5,0,11.19-.45-.45c2.18,0,4.36,0,6.55.06l6.58.11Z" style="fill:#ebebeb"></path><path d="M301.48,170l-13.13.28-6.66.11c-2.22.05-4.46,0-6.69.05h-.44V170l-.05-11.19v-.5h.5l13.24.06c4.41,0,8.83.11,13.24.17h.27v.27c0,1.9-.08,3.79-.13,5.65Zm0,0-.14-5.66c0-1.86-.11-3.7-.13-5.53l.27.27c-4.41,0-8.83.16-13.24.16l-13.24.07.5-.5L275.44,170l-.44-.45c2.18,0,4.36,0,6.54.06l6.58.11Z" style="fill:#ebebeb"></path><path d="M468.66,334.27l-13.13.28-6.66.11c-2.22,0-4.46,0-6.69.06h-.45v-.45l-.05-11.19v-.5h.5l13.24.06c4.41,0,8.83.12,13.24.17h.27v.27c0,1.9-.08,3.79-.13,5.65Zm0,0-.14-5.65c0-1.87-.12-3.71-.13-5.54l.27.27c-4.41,0-8.83.16-13.24.17l-13.24.06.5-.5-.06,11.19-.44-.44c2.18,0,4.36,0,6.54.05l6.58.11Z" style="fill:#ebebeb"></path><path d="M453.89,60.59l-13.13.28L434.1,61c-2.22.05-4.46,0-6.69.06H427v-.45l0-11.19v-.5h.51l13.24.07c4.41,0,8.82.11,13.24.16h.27v.27c0,1.9-.09,3.79-.13,5.66Zm0,0-.14-5.65c-.05-1.86-.12-3.71-.14-5.54l.28.27c-4.42.06-8.83.16-13.24.17l-13.24.06.5-.5-.06,11.19-.44-.44c2.18,0,4.35,0,6.54.05l6.58.11Z" style="fill:#ebebeb"></path><path d="M468.66,74.7,455.53,75l-6.66.11c-2.22,0-4.46,0-6.69.06h-.45V74.7l-.05-11.19V63h.5l13.24.07c4.41,0,8.83.11,13.24.16h.27v.27c0,1.9-.08,3.79-.13,5.66Zm0,0-.14-5.65c0-1.87-.12-3.71-.13-5.54l.27.27c-4.41.06-8.83.16-13.24.17L442.18,64l.5-.5-.06,11.19-.44-.44c2.18,0,4.36,0,6.54,0l6.58.11Z" style="fill:#ebebeb"></path><path d="M72.59,60.59l-13.12.28L52.81,61c-2.23.05-4.47,0-6.7.06h-.44v-.45L45.61,49.4v-.5h.5L59.35,49c4.42,0,8.83.11,13.24.16h.28v.27c0,1.9-.09,3.79-.13,5.66Zm0,0-.14-5.65c0-1.86-.11-3.71-.13-5.54l.27.27c-4.41.06-8.82.16-13.24.17l-13.24.06.5-.5,0,11.19-.45-.44c2.18,0,4.36,0,6.55.05l6.58.11Z" style="fill:#ebebeb"></path><rect x="357.93" y="158.05" width="76.42" height="226.13" style="fill:#ebebeb"></rect><rect x="354.22" y="154.12" width="83.83" height="3.92" style="fill:#dbdbdb"></rect><rect x="438.05" y="154.12" width="26.36" height="3.92" style="fill:#ebebeb"></rect><rect x="434.35" y="158.05" width="25.89" height="226.13" style="fill:#dbdbdb"></rect><path d="M426.15,333.6h-60v-34h60Zm-59.77-.25H425.9V299.9H366.38Z" style="fill:#c7c7c7"></path><rect x="387.77" y="309.59" width="11.67" height="6.71" style="fill:#c7c7c7"></rect><path d="M403,315.91H391.09V310H403Zm-11.68-.25h11.43v-5.44H391.34Z" style="fill:#c7c7c7"></path><path d="M426.15,376.18h-60V342.23h60Zm-59.77-.25H425.9V342.48H366.38Z" style="fill:#c7c7c7"></path><rect x="387.77" y="352.16" width="11.67" height="6.71" style="fill:#c7c7c7"></rect><path d="M403,358.49H391.09v-5.95H403Zm-11.68-.25h11.43v-5.45H391.34Z" style="fill:#c7c7c7"></path><path d="M426.15,291h-60V257.07h60Zm-59.77-.25H425.9V257.32H366.38Z" style="fill:#c7c7c7"></path><rect x="387.77" y="267.01" width="11.67" height="6.71" style="fill:#c7c7c7"></rect><path d="M403,273.34H391.09v-5.95H403Zm-11.68-.25h11.43v-5.45H391.34Z" style="fill:#c7c7c7"></path><path d="M426.15,248.45h-60v-34h60Zm-59.77-.25H425.9V214.74H366.38Z" style="fill:#c7c7c7"></path><rect x="387.77" y="224.43" width="11.67" height="6.71" style="fill:#c7c7c7"></rect><path d="M403,230.76H391.09v-5.95H403Zm-11.68-.25h11.43v-5.45H391.34Z" style="fill:#c7c7c7"></path><rect x="366.25" y="172.17" width="59.78" height="33.7" style="fill:#a6a6a6"></rect><rect x="374.7" y="163.54" width="45.5" height="32.99" style="fill:#c7c7c7"></rect><polygon points="390.78 160.12 374.7 160.12 374.7 163.54 391.7 163.54 390.78 160.12" style="fill:#c7c7c7"></polygon><polygon points="420.08 196.52 374.58 196.52 371.07 166.27 416.57 166.27 420.08 196.52" style="fill:#a6a6a6"></polygon><polygon points="386.78 163.14 370.71 163.14 371.07 166.27 388.07 166.27 386.78 163.14" style="fill:#a6a6a6"></polygon><rect x="337.45" y="172.17" width="59.78" height="33.7" style="fill:#ebebeb"></rect><path d="M397.35,206h-60V172h60Zm-59.77-.25H397.1V172.29H337.58Z" style="fill:#c7c7c7"></path><rect x="358.97" y="181.98" width="11.67" height="6.71" style="fill:#c7c7c7"></rect><path d="M374.22,188.31H362.3v-5.95h11.92Zm-11.67-.25H374v-5.45H362.55Z" style="fill:#c7c7c7"></path><rect x="397.37" y="177.22" width="28.65" height="28.65" style="fill:#dbdbdb"></rect><path d="M61.44,50.05H180.77V216.83H61.44Zm115.79,3.54H65v159.7H177.23Z" style="fill:#ebebeb"></path><rect x="119.34" y="54.52" width="3.54" height="160.54" style="fill:#ebebeb"></rect><rect x="58.23" y="57.21" width="125.76" height="4.93" transform="translate(242.21 119.36) rotate(180)" style="fill:#ebebeb"></rect><rect x="58.23" y="62.76" width="125.76" height="4.93" transform="translate(242.21 130.46) rotate(180)" style="fill:#ebebeb"></rect><rect x="58.23" y="68.32" width="125.76" height="4.93" transform="translate(242.21 141.57) rotate(180)" style="fill:#ebebeb"></rect><rect x="58.23" y="73.87" width="125.76" height="4.93" transform="translate(242.21 152.67) rotate(180)" style="fill:#ebebeb"></rect><rect x="58.23" y="79.42" width="125.76" height="4.93" transform="translate(242.21 163.77) rotate(180)" style="fill:#ebebeb"></rect><rect x="58.23" y="84.97" width="125.76" height="4.93" transform="translate(242.21 174.88) rotate(180)" style="fill:#ebebeb"></rect><rect x="58.23" y="90.52" width="125.76" height="4.93" transform="translate(242.21 185.98) rotate(180)" style="fill:#ebebeb"></rect><rect x="58.23" y="96.07" width="125.76" height="4.93" transform="translate(242.21 197.08) rotate(180)" style="fill:#ebebeb"></rect><rect x="58.23" y="101.63" width="125.76" height="4.93" transform="translate(242.21 208.19) rotate(180)" style="fill:#ebebeb"></rect><rect x="68.75" y="56.21" width="0.89" height="96.03" style="fill:#a6a6a6"></rect><polygon points="67.62 156.37 70.77 156.37 69.98 151.85 68.41 151.85 67.62 156.37" style="fill:#a6a6a6"></polygon><rect x="65.56" y="56.21" width="0.89" height="120.25" style="fill:#a6a6a6"></rect><polygon points="64.43 179.78 67.58 179.78 66.79 175.27 65.22 175.27 64.43 179.78" style="fill:#a6a6a6"></polygon><rect x="52.73" y="49.36" width="136.76" height="10.32" transform="translate(242.21 109.04) rotate(180)" style="fill:#dbdbdb"></rect></g><g id="freepik--Shadow--inject-242"><ellipse cx="250" cy="427.43" rx="197.57" ry="23.39" style="fill:#ebebeb"></ellipse></g><g id="freepik--Floor--inject-242"><polygon points="35.47 384.18 89.1 383.94 142.73 383.85 250 383.68 357.27 383.85 410.9 383.94 464.53 384.18 410.9 384.42 357.27 384.51 250 384.68 142.73 384.51 89.1 384.42 35.47 384.18" style="fill:#263238"></polygon></g><g id="freepik--Character--inject-242"><polygon points="207.33 309.17 209.59 322.72 224.9 405.38 227.36 405.38 216.23 322.72 214.59 309.17 207.33 309.17" style="fill:#dbdbdb"></polygon><polygon points="214.59 309.17 207.33 309.17 209.59 322.72 216.23 322.72 214.59 309.17" style="fill:#a6a6a6"></polygon><polygon points="159.26 405.38 161.73 405.38 177.04 322.72 179.3 309.17 172.04 309.17 170.4 322.72 159.26 405.38" style="fill:#dbdbdb"></polygon><polygon points="172.04 309.17 170.4 322.72 177.04 322.72 179.3 309.17 172.04 309.17" style="fill:#a6a6a6"></polygon><polygon points="113.36 405.38 115.82 405.38 131.13 322.72 133.39 309.17 126.13 309.17 124.49 322.72 113.36 405.38" style="fill:#dbdbdb"></polygon><polygon points="124.49 322.72 131.13 322.72 133.39 309.17 126.13 309.17 124.49 322.72" style="fill:#a6a6a6"></polygon><polygon points="117.27 315.54 229.42 315.54 229.42 303.72 187.44 303.72 173.33 221.63 121.55 221.63 117.27 315.54" style="fill:#dbdbdb"></polygon><polygon points="117.27 315.54 123.38 315.54 127.37 221.63 121.55 221.63 117.27 315.54" style="fill:#a6a6a6"></polygon><path d="M235,421c-2.24.25-63.77-13.25-65.74-15.2-.24-.22.87-5.81,2.5-13.44l0-.15c1-4.83,18.18-44.08,18.18-44.08l39.91,10.36-17.4,36.45s7.57,5.26,14.07,10.27v0a87.62,87.62,0,0,1,8.22,6.75C236.64,414.31,237.2,420.74,235,421Z" style="fill:#ad6359"></path><path d="M235,421c-2.24.26-63.77-13.24-65.74-15.19-.24-.22.87-5.81,2.5-13.44l0-.14c.37-1.8,3-8.4,6.14-15.95,6.57,1.64,30.11,7.55,38.66,10l-4.12,8.64s7.57,5.27,14.07,10.27v0a88.13,88.13,0,0,1,8.22,6.74C236.64,414.32,237.2,420.74,235,421Z" style="fill:#ebebeb"></path><path d="M235.16,421.26c-2.31.25-63.88-13.42-65.9-15.43-.77-.76.41-10.45,3.58-20.76l39.69,8.86S233,409.54,235,412,237.47,421,235.16,421.26Z" style="fill:#a6a6a6"></path><path d="M169.26,405.83c1.35,1.34,29.35,7.9,48.43,12,9.44,2,16.71,3.5,17.46,3.42,2.32-.25,1.79-6.86-.17-9.29a92.55,92.55,0,0,0-8-6.83c-6.48-5.16-14.44-11.23-14.44-11.23l-39.69-8.85C169.67,395.38,168.48,405.08,169.26,405.83Z" style="fill:#c7c7c7"></path><path d="M217.69,417.85c9.44,2,16.71,3.5,17.46,3.42,2.32-.25,1.79-6.86-.17-9.29a92.55,92.55,0,0,0-8-6.83Z" style="fill:#a6a6a6"></path><path d="M234.82,418.61c-10.26-2.55-51.91-11.85-62.25-13.58-.08,0-.09,0,0,.06,10.12,2.75,51.84,11.71,62.23,13.68C235,418.82,235,418.66,234.82,418.61Z" style="fill:#263238"></path><path d="M231.51,408.89a8.48,8.48,0,0,0-6.74,1.14,8.26,8.26,0,0,0-3.53,5c0,.07.1.09.13,0A9.81,9.81,0,0,1,231.48,409,.06.06,0,1,0,231.51,408.89Z" style="fill:#263238"></path><path d="M215.54,395.68c-4.12-1-9.23-.58-12.55,2.23-.13.11,0,.29.16.25a59.31,59.31,0,0,1,12.35-2A.26.26,0,0,0,215.54,395.68Z" style="fill:#263238"></path><path d="M218.45,397.63c-4.12-1-9.23-.58-12.55,2.23-.13.11,0,.29.17.25a58.45,58.45,0,0,1,12.34-1.95A.27.27,0,0,0,218.45,397.63Z" style="fill:#263238"></path><path d="M221.37,399.58c-4.12-1-9.24-.58-12.55,2.23-.13.11,0,.29.16.26a57.83,57.83,0,0,1,12.34-2A.27.27,0,0,0,221.37,399.58Z" style="fill:#263238"></path><path d="M224.28,401.53c-4.12-1-9.23-.58-12.55,2.23-.13.11,0,.29.16.26a57.92,57.92,0,0,1,12.35-2A.27.27,0,0,0,224.28,401.53Z" style="fill:#263238"></path><path d="M213.66,395.83l-42.37-10.54s37.89-83.19,34.82-87.36c-1.53-2.09-41.08-3.17-53.54-14-16.18-14.06-5-35.11-5-35.11L191.8,248s-.64,9.24,1.07,10.65c1.12.94,53.71,6,59.28,23.83C259,304.38,213.66,395.83,213.66,395.83Z" style="fill:#263238"></path><path d="M215.51,386.87a25.27,25.27,0,0,0-3.48-1.24c-1.23-.41-2.46-.81-3.7-1.19-2.44-.75-4.89-1.47-7.35-2.13-4.95-1.34-9.92-2.64-14.91-3.85-2.6-.62-8.18-2-8.52-1.93-.17,0-.2.3-.05.35,4.83,1.66,9.73,3.08,14.63,4.5s9.79,2.83,14.75,4c1.37.33,2.75.62,4.13.93a31.16,31.16,0,0,0,4.38.88C215.54,387.22,215.67,387,215.51,386.87Z" style="fill:#37474f"></path><path d="M213.71,294.35a6.74,6.74,0,0,0-3.32-1.08l-19.09-3.43c-6-1.07-12-2-17.87-3.26-4.91-1-9.9-2.35-14.12-5.07A20.53,20.53,0,0,1,150.76,270a36.62,36.62,0,0,1-.95-14.59c.13-1.19.36-2.37.59-3.54a.07.07,0,0,0-.14,0c-1.72,9-2,19.55,4.71,26.86,3.26,3.55,7.78,5.68,12.4,7.07a140.68,140.68,0,0,0,16,3.32q9.56,1.71,19.1,3.42c3.06.55,6.17,1,9.21,1.66a3.11,3.11,0,0,1,1.65.76,2.37,2.37,0,0,1,.24,2.21c-.32,1.5-.74,3-1.19,4.45-3.63,11.86-29.52,68.15-30.23,69.45-.07.14.14.24.22.11,6-10.36,25.25-53.81,29.25-65a72.15,72.15,0,0,0,2.61-8.72C214.49,296.37,214.63,295.16,213.71,294.35Z" style="fill:#37474f"></path><path d="M298.12,424.41c-2.15.7-65.14-.29-67.45-1.81-.28-.16-.31-5.86-.23-13.66v-.15c0-4.94-1-47.17-1-47.17l39.42.14,2,41.6s8.47,3.65,15.84,7.26v0a90.71,90.71,0,0,1,9.4,5C298.45,417.54,300.27,423.73,298.12,424.41Z" style="fill:#ad6359"></path><path d="M298.12,424.41c-2.15.69-65.14-.29-67.46-1.81-.27-.16-.3-5.86-.22-13.66v-1.2c0-.25,0-.5,0-.75s0-.75,0-1.13c0-3.28-.14-8.61-.27-14.45l40.16.21.56,11.74s8.46,3.65,15.83,7.26l0,0a90.14,90.14,0,0,1,9.39,5C298.44,417.54,300.27,423.73,298.12,424.41Z" style="fill:#ebebeb"></path><path d="M298.37,424.65c-2.21.7-65.27-.44-67.65-2-.91-.59-1.68-10.33-.62-21.07l40.66.78s23.16,11.23,25.59,13.23S300.59,424,298.37,424.65Z" style="fill:#c7c7c7"></path><path d="M297.52,422.11c-10.57-.45-53.23-1.27-63.71-.91-.09,0-.09.06,0,.07,10.46.67,53.13,1.15,63.7,1C297.74,422.28,297.74,422.12,297.52,422.11Z" style="fill:#263238"></path><path d="M292.33,413.25a8.51,8.51,0,0,0-6.37,2.46,8.2,8.2,0,0,0-2.46,5.6c0,.07.11.07.12,0a9.82,9.82,0,0,1,8.71-7.94C292.41,413.37,292.42,413.25,292.33,413.25Z" style="fill:#263238"></path><path d="M274.05,403.48c-4.23-.13-9.16,1.27-11.85,4.69-.1.13.08.28.21.21A58.48,58.48,0,0,1,274.12,404,.27.27,0,0,0,274.05,403.48Z" style="fill:#263238"></path><path d="M277.3,404.82c-4.23-.14-9.17,1.27-11.86,4.68-.1.13.09.28.21.22a58.36,58.36,0,0,1,11.71-4.38A.26.26,0,0,0,277.3,404.82Z" style="fill:#263238"></path><path d="M280.54,406.15c-4.23-.14-9.16,1.27-11.85,4.68-.11.13.08.28.21.22a58,58,0,0,1,11.7-4.38A.26.26,0,0,0,280.54,406.15Z" style="fill:#263238"></path><path d="M283.78,407.48c-4.23-.13-9.16,1.27-11.85,4.68-.1.14.08.28.21.22A58.51,58.51,0,0,1,283.85,408,.27.27,0,0,0,283.78,407.48Z" style="fill:#263238"></path><path d="M272.77,402.34l-43.37,0s.72-81.18-2.71-85.68c-4.57-6-69.58-6.63-83.29-26.17-12.32-17.56-1.45-42.06-1.45-42.06l49.24-.87A101.51,101.51,0,0,1,186.44,263s59.17,11.65,75.57,30C273.08,305.42,272.77,402.34,272.77,402.34Z" style="fill:#263238"></path><path d="M195.14,259.7A24.09,24.09,0,0,0,191,261c-1.42.53-2.81,1.12-4.18,1.77a82.8,82.8,0,0,0-7.84,4.31c-.08.05,0,.16.07.12,2.68-1.35,5.45-2.56,8.22-3.72l4-1.66c1.34-.56,2.76-1,4-1.73C195.43,260,195.34,259.66,195.14,259.7Z" style="fill:#37474f"></path><path d="M192.34,247.51c-.59,2.24-1.12,4.5-1.78,6.72-.31,1-.61,2-1,3-.34.83-.84,1.78-1.81,2-1.12.2-1.43-.76-1.33-1.68s.39-2.06.61-3.07.49-2.32.72-3.49c.11-.59.23-1.17.34-1.76,0-.14.15-1.26.23-1.58,0,0,0,0,.06,0h0a.07.07,0,0,0,.07-.06.16.16,0,0,0,0-.17.11.11,0,0,0-.11,0c-.21.11-.23.4-.3.62-.19.56-.38,1.13-.55,1.7-.33,1.07-.64,2.14-.93,3.22l-.84,3.24a5.05,5.05,0,0,0-.25,2.49,1.9,1.9,0,0,0,1.75,1.46,2.39,2.39,0,0,0-.12.22c-.1.22-.18.46-.26.68s-.17.46-.24.7a1.36,1.36,0,0,0-.07.35c0,.13,0,.26,0,.39a.19.19,0,0,0,.35.12c.06-.11.14-.2.21-.31a2.48,2.48,0,0,0,.17-.37c.07-.23.14-.45.2-.68s.13-.45.18-.68,0-.28,0-.42a2.63,2.63,0,0,0,1.3-.47,4.39,4.39,0,0,0,1.36-2c.35-.93.63-1.9.9-2.85a41.5,41.5,0,0,0,1.52-7.23A.21.21,0,0,0,192.34,247.51Z" style="fill:#37474f"></path><path d="M163,252.66c-.22,1.11-.36,2.24-.63,3.34s-.57,2.16-.94,3.21a11.85,11.85,0,0,1-1.41,2.88,10.67,10.67,0,0,1-2.21,2.19,18.49,18.49,0,0,1-5.31,2.88,24.6,24.6,0,0,1-2.94.82c-.52.11-1,.2-1.57.26a3.44,3.44,0,0,0-1.27.27.26.26,0,0,0,0,.44,4.48,4.48,0,0,0,2.33.1,16.08,16.08,0,0,0,2.5-.4,18,18,0,0,0,4.74-1.94,14.73,14.73,0,0,0,4-3.17,11.23,11.23,0,0,0,2.16-4.59,22.54,22.54,0,0,0,.76-6.27A.11.11,0,0,0,163,252.66Z" style="fill:#37474f"></path><path d="M235.66,345.79q-.53-10.5-1.49-21c-.16-1.72-.31-3.44-.5-5.16a16.46,16.46,0,0,0-.82-3.93c-1-2.63-3.16-4-5.78-4.67-3.1-.83-6.31-1.34-9.47-1.89s-6.47-1.07-9.71-1.56c-6.56-1-13.14-1.92-19.67-3.1a155.67,155.67,0,0,1-19.28-4.58c-5.79-1.83-11.73-4.07-16.34-8.16-9.91-8.8-10.1-23.36-8.73-35.52.19-1.72.42-3.43.65-5.15,0-.09-.13-.12-.14,0-.87,6.85-1.88,13.74-1.28,20.65a33.7,33.7,0,0,0,5.29,16.07c3.33,4.91,8.32,8.12,13.71,10.37a109,109,0,0,0,18.38,5.54c13,2.87,26.2,4.18,39.25,6.58,1.61.29,3.21.6,4.81.94a19.78,19.78,0,0,1,4.35,1.21c3,1.37,3.73,4.27,4.06,7.26.77,6.95,1.27,13.93,1.69,20.91.84,14.05,1.21,28.18,1,42.26l-.09,5.22c0,.15.23.14.23,0C236.4,374,236.38,359.88,235.66,345.79Z" style="fill:#37474f"></path><path d="M271.16,395.3a26.8,26.8,0,0,0-3.68-.35c-1.3-.09-2.59-.18-3.88-.25-2.55-.13-5.1-.23-7.65-.27-5.13-.08-10.26-.13-15.4-.07-2.67,0-8.42.07-8.73.21-.16.06-.12.34,0,.35,5.09.43,10.19.6,15.29.78s10.19.35,15.29.29c1.41,0,2.82-.08,4.23-.11a31.65,31.65,0,0,0,4.46-.22C271.26,395.64,271.33,395.34,271.16,395.3Z" style="fill:#37474f"></path><path d="M229.47,361.62c.15-5.8.14-11.61.05-17.41s-.31-11.61-.69-17.41a68.32,68.32,0,0,0-1.11-8.7,8.13,8.13,0,0,0-.34-1.1,2.47,2.47,0,0,0-.3-.58,2.5,2.5,0,0,0-.46-.46,8.27,8.27,0,0,0-2-1.07,30.89,30.89,0,0,0-4.23-1.24A134.22,134.22,0,0,0,203.13,311c2.87.47,5.73.94,8.57,1.5s5.69,1.11,8.48,1.85a37.43,37.43,0,0,1,4.09,1.3,7.49,7.49,0,0,1,1.8.95,1.42,1.42,0,0,1,.49.69,6.16,6.16,0,0,1,.28,1,65.38,65.38,0,0,1,1,8.56c.46,5.77.67,11.57.93,17.36Z" style="fill:#37474f"></path><path d="M252.81,285.65a103.38,103.38,0,0,0-15.56-8.08c-5.38-2.32-10.89-4.31-16.44-6.18S209.62,268,204,266.5s-11.38-2.72-17.11-3.85c2.81.79,5.66,1.46,8.47,2.26s5.64,1.51,8.44,2.32c5.61,1.6,11.22,3.23,16.74,5.1s11,3.78,16.46,5.93c2.71,1.08,5.39,2.22,8,3.45S250.26,284.22,252.81,285.65Z" style="fill:#37474f"></path><path d="M182.28,201.07c3.83,18.49,11.89,42,18.4,46.83,5.25,3.9,33.08,11.19,34.63,11.39,3.86.47,12.18-27.13,8.09-27.84-5.4-.94-29-2.77-30.31-4.19s-9.85-13.5-19.43-27.4C187,190.26,179.9,189.59,182.28,201.07Z" style="fill:#ad6359"></path><path d="M232.25,257.72a83.08,83.08,0,0,0,10.93,4.93c3,.94,11.68,3.4,13,.21.93-2.18-4-4.23-7.47-5.76-1.82-.81-4.05-2.78-3.48-4,1-2.05,5.68.13,8.76,2,6,3.62,13.84,10.1,17.58,7.12,1.42-1.13-.15-3.26-2.47-5.38,3.78,2.49,7.83,4.55,9.45,3.36a2,2,0,0,0,.5-2.73,2.69,2.69,0,0,0,3-.4c1.28-1.28.71-3.22-.61-5.22a1.49,1.49,0,0,0,1.15-.72c2.72-4-10.24-15.8-14.78-17-13.37-3.48-27.69-2.62-27.69-2.62C234.76,235.69,232.24,257.71,232.25,257.72Z" style="fill:#ad6359"></path><path d="M252.27,245.77a22.84,22.84,0,0,1,8.89,3.65c3.36,2.32,5.56,5,8.37,7.71.07.07,0,.19-.11.12-1.34-1.29-6.88-6.15-8.31-7.26a21.68,21.68,0,0,0-8.85-4.16S252.24,245.77,252.27,245.77Z" style="fill:#263238"></path><path d="M254.9,240.13A54.26,54.26,0,0,1,265.25,244c3.55,1.91,6.29,4.95,9,7.88,1.62,1.75,3.21,3.55,4.75,5.38.06.07,0,.19-.11.11q-4.11-4.53-8.48-8.81a28.61,28.61,0,0,0-9.39-6.2c-2-.82-4.07-1.48-6.13-2.13C254.85,240.18,254.86,240.11,254.9,240.13Z" style="fill:#263238"></path><path d="M258.78,235.22c3.42.78,6.4,1.45,9.4,3.35a49,49,0,0,1,9.09,8.19c1.47,1.64,2.89,3.32,4.28,5,.05.07-.07.17-.12.1a115.16,115.16,0,0,0-10.25-10.59,22.93,22.93,0,0,0-5.77-3.93,40.44,40.44,0,0,0-6.64-2.13S258.76,235.22,258.78,235.22Z" style="fill:#263238"></path><path d="M241.8,230.44,231.11,260s-29.32-8.65-33.2-13.74-13.64-30.65-15.74-44.34S186.91,191,192.74,198s20.41,28.37,20.91,28.7S241.8,230.44,241.8,230.44Z" style="fill:#5965E0"></path><path d="M226.65,253c.39-1,.82-2,1.19-3q1.16-3.1,2.3-6.21c.77-2.07,1.52-4.15,2.27-6.23s1.4-4.21,2.17-6.28a.08.08,0,0,0-.14-.06c-.87,2-1.81,4-2.66,6.07s-1.67,4.18-2.45,6.29-1.5,4.16-2.21,6.25c-.35,1-.63,2.13-1,3.19s-.66,2-.9,3.09a.06.06,0,0,0,.12,0C225.86,255.14,226.23,254.05,226.65,253Z" style="fill:#263238"></path><path d="M218.33,255.85c-8.42-2.93-18.28-6.82-20.42-9.63-3.88-5.09-13.64-30.64-15.74-44.33-1-6.5,0-9.28,2-9.65Z" style="fill:#263238"></path><path d="M198.15,258.22c-1.38,1.35-60.67,7.52-61,7.12-.78-1.07,10.3-56.71,34-75.88,4.18-3.38,11.16-2,14.32.07,1.58,1,6,9,7.2,16.11S199,257.37,198.15,258.22Z" style="fill:#5965E0"></path><path d="M165.66,193.48c-12,10-42.95,48.89-35.8,57.72s53.61,4,67-.48c4-1.33-7.39-26.64-11.76-27.74-3.63-.92-23.58,5.35-24,4.19s4.81-8.64,11.4-24.46C180.17,184.46,170.94,189.07,165.66,193.48Z" style="fill:#ad6359"></path><path d="M204.84,217.74c9.33-.13,11.74,1.27,19.56-3,5.12-2.82,9.12-.75,5.76,4.32-5.49,8.3-17.49,11-21.92,10.72Z" style="fill:#ad6359"></path><path d="M179.39,223.51s11-4.43,20.94-5.55c6.86-.77,22-.79,34.39,15.68,2.94,3.9,4.36,11.55-2.76,6.92-5.06-3.29-7.27-6.91-10.57-8.29,0,0,.66,9.95-3.37,12.74A90.52,90.52,0,0,1,207,251.56a17.58,17.58,0,0,1-1.41-1.95s-4,2.25-10.84.73Z" style="fill:#ad6359"></path><path d="M207,218.27c3,2.06,9.21,6.53,13,12,4.26,6,10.82,18.8,6.34,21.9-3.29,2.27-6.23-2.39-6.23-2.39s1.6,5.85-1.82,7.25c-3.11,1.28-5.17-2.46-5.17-2.46s.36,3.72-2.88,4.37c-3.89.78-4-7.14-8.64-9.75C200.6,248.56,207,218.27,207,218.27Z" style="fill:#ad6359"></path><path d="M212.92,233.66a29.47,29.47,0,0,1,7.3,15.94c0,.16-.1.25-.14.11a72.59,72.59,0,0,0-7.22-16S212.89,233.64,212.92,233.66Z" style="fill:#263238"></path><path d="M207,238.13c1.93,2.29,6,9.59,6.34,16.35,0,.15-.11.24-.14.1a77.3,77.3,0,0,0-6.26-16.41S206.93,238.1,207,238.13Z" style="fill:#263238"></path><path d="M221.4,232.21c2.88,1.25,4.64,3,6.94,5a42.85,42.85,0,0,0,3.54,2.92c1.14.81,2.81,2,4.23,1.16A2.45,2.45,0,0,0,237,239a6.64,6.64,0,0,0-.76-2.72s0-.08.08,0a8.91,8.91,0,0,1,1,2.36,4,4,0,0,1,0,2.37c-.64,1.59-2.61,1.57-3.93.94a13.24,13.24,0,0,1-2.21-1.43c-.67-.51-1.32-1.05-2-1.6-1.3-1.14-2.54-2.35-3.82-3.5a39.9,39.9,0,0,0-4-3C221.29,232.27,221.35,232.19,221.4,232.21Z" style="fill:#263238"></path><path d="M226.34,243.5a93.45,93.45,0,0,0-5-11.23s0-.09.07-.05c2,2.5,5.06,8.83,5.7,10.82a16.45,16.45,0,0,1,1.06,6.53c-.39,3.12-2.53,3.45-3.31,3.51a4.08,4.08,0,0,1-2.61-.77,8.21,8.21,0,0,1-2.12-2.56c0-.05,0-.1.07-.05.93,1.36,2.57,2.8,4.29,2.79a2.88,2.88,0,0,0,2.07-.8,3.77,3.77,0,0,0,.81-2.45A17.1,17.1,0,0,0,226.34,243.5Z" style="fill:#263238"></path><path d="M213.29,254.48c.39.43,1.12,1.84,2.51,2.29a3.25,3.25,0,0,0,3-.29,4.09,4.09,0,0,0,1.48-2.69,26.67,26.67,0,0,0-.17-4c0-.07.07-.09.09,0a14.87,14.87,0,0,1,.4,4.35,4.28,4.28,0,0,1-1.58,3,3.22,3.22,0,0,1-3.35.27,6.68,6.68,0,0,1-2.52-2.8S213.27,254.46,213.29,254.48Z" style="fill:#263238"></path><path d="M202,248.62a8,8,0,0,1,1.18,1.28q.57.72,1.11,1.47a18.19,18.19,0,0,1,1.79,3.23,9.22,9.22,0,0,0,1.86,3.25,3,3,0,0,0,3.41.52,3,3,0,0,0,1.27-1.45,5.72,5.72,0,0,0,.46-2.11,0,0,0,1,1,.09,0,9.87,9.87,0,0,1-.09,2,3.5,3.5,0,0,1-.82,1.57,3.31,3.31,0,0,1-3.34.79,4.89,4.89,0,0,1-2.68-2.66c-.64-1.27-1.13-2.61-1.83-3.87-.37-.66-.73-1.32-1.14-1.95s-1-1.27-1.36-2A.06.06,0,0,1,202,248.62Z" style="fill:#263238"></path><path d="M198,250.83a26.83,26.83,0,0,0,5.16-.42s.11.15.06.17a12.2,12.2,0,0,1-2.59.51,9.3,9.3,0,0,1-2.63-.17C198,250.91,198,250.82,198,250.83Z" style="fill:#263238"></path><path d="M177.85,223.18l12.68,30.52s-58.14,8.58-62.06-3.53,25-46.77,35.75-56.09,13.63-4.4,10.14,5.08-12.47,27.68-12.22,27.68S177.85,223.18,177.85,223.18Z" style="fill:#5965E0"></path><path d="M177.88,223.13a83.83,83.83,0,0,0-14.56,3.47,130.25,130.25,0,0,0-14,5.29c-2.62,1.18-5.15,2.48-7.71,3.78-.09.05,0,.17.09.13,2.31-1.06,4.69-2,7.05-2.92s4.62-1.8,7-2.64q7-2.52,14.19-4.5c2.69-.74,5.39-1.45,8.06-2.25C178.12,223.43,178.09,223.1,177.88,223.13Z" style="fill:#263238"></path><path d="M179.58,249.37c-.34-1-.64-2-1-3l-2.23-6.24c-.75-2.08-1.5-4.16-2.28-6.23s-1.62-4.12-2.36-6.2a.08.08,0,1,0-.15,0c.64,2.11,1.2,4.25,1.87,6.36s1.4,4.27,2.16,6.39,1.52,4.15,2.33,6.21c.4,1,.87,2,1.31,3.06s.81,2,1.3,3c0,.06.13,0,.11-.05C180.35,251.52,179.94,250.46,179.58,249.37Z" style="fill:#263238"></path><path d="M191.06,254.15c-.17-.48-.33-1-.49-1.44-.06-.16-.34-.14-.31,0l.18,1.21c-3.29.17-6.56.67-9.84,1s-6.79.65-10.2.89c-6.71.45-13.44.62-20.17.45-3.85-.1-7.68-.37-11.52-.54a.09.09,0,0,0,0,.18,108,108,0,0,0,20.41,1.17c6.82-.1,13.63-.57,20.42-1.21a107.7,107.7,0,0,0,11.34-1.4A.3.3,0,0,0,191.06,254.15Z" style="fill:#263238"></path><path d="M169.3,213.69c-.55.74-1.1,1.48-1.58,2.26l-.31.54c.85-2.06,1.64-4.15,2.45-6.23,0-.07-.08-.11-.1,0-1.46,2.95-3,5.86-4.34,8.86-.67,1.46-1.32,2.93-2,4.39-.34.76-.68,1.51-1,2.27a6.31,6.31,0,0,0-.7,2.05c0,.07.09.09.14.05a6.22,6.22,0,0,0,1.17-1.91c.37-.74.72-1.48,1.08-2.22q1.08-2.22,2.1-4.47c.17-.37.33-.75.49-1.12.45-.64.89-1.28,1.31-1.93s.93-1.61,1.35-2.43C169.41,213.7,169.34,213.64,169.3,213.69Z" style="fill:#263238"></path><path d="M184,200.47c-3.5.19-8.34-5.95-9.88-10.5-.1-.31,3.11-11.47,3.51-13.75.08-.47,13.69,6,13.69,6a36.79,36.79,0,0,0-2.94,8.5C188.37,191.07,187.41,200.28,184,200.47Z" style="fill:#ad6359"></path><path d="M191.37,182.23h0c0,.07-.17.33-.36.76-.33.73-.86,1.92-1.35,3.3a27.08,27.08,0,0,0-1.23,4.43c0,.11,0,.22,0,.32v0c0,.19-.06.44-.1.74a11.21,11.21,0,0,1-1.41-.17c-7.75-1.57-8.67-11.59-8.74-15.38l.24.09c.37.12.84.31,1.42.55l.44.19c.91.39,2,.88,3.13,1.38l1.12.51,2.38,1.1c.32.16.65.31,1,.44l1,.45a4.54,4.54,0,0,0,.45.21l.2.1,1.13.54.54.25.23.11,0,0Z" style="fill:#263238"></path><path d="M179.58,159c-2.77,4.61-3.73,19.69-1,23.8,4,5.94,12.32,8.49,17.83,3.29,5.34-5,6.24-24.71,3-28.63C194.66,151.69,183.68,152.18,179.58,159Z" style="fill:#ad6359"></path><path d="M191.59,171s-.09,0-.09.08c0,1-.19,2.19-1.12,2.49a0,0,0,0,0,0,.06C191.52,173.47,191.74,171.92,191.59,171Z" style="fill:#263238"></path><path d="M190.72,169.86c-1.63-.19-1.89,3.09-.38,3.26S192.09,170,190.72,169.86Z" style="fill:#263238"></path><path d="M197.45,171.59s.08,0,.07.09c-.11,1-.07,2.19.82,2.6,0,0,0,.07,0,.06C197.22,174.09,197.18,172.53,197.45,171.59Z" style="fill:#263238"></path><path d="M198.44,170.6c1.64,0,1.51,3.29,0,3.28S197.06,170.59,198.44,170.6Z" style="fill:#263238"></path><path d="M190,168.39a12,12,0,0,0,1.34.16,2.16,2.16,0,0,0,1.4-.1.68.68,0,0,0,.27-.8,1.72,1.72,0,0,0-1.48-.93,2.5,2.5,0,0,0-1.79.34A.74.74,0,0,0,190,168.39Z" style="fill:#263238"></path><path d="M200,168.59a11.36,11.36,0,0,1-1.28-.44,2.16,2.16,0,0,1-1.22-.7.7.7,0,0,1,.11-.84,1.74,1.74,0,0,1,1.74-.19,2.54,2.54,0,0,1,1.46,1.09A.73.73,0,0,1,200,168.59Z" style="fill:#263238"></path><path d="M189.9,180.31c.23.25.44.6.81.66a2.64,2.64,0,0,0,1.11-.17s.07,0,0,.06a1.38,1.38,0,0,1-1.33.44,1.08,1.08,0,0,1-.73-1C189.79,180.28,189.87,180.27,189.9,180.31Z" style="fill:#263238"></path><path d="M191.21,177.35a3.47,3.47,0,0,0,2.19,1.72,4.26,4.26,0,0,0,1.24.15h.24l.22,0a.25.25,0,0,0,.22-.21h0a.33.33,0,0,0,0-.1h0v-.09c.08-.78.1-2,.1-2,.27.17,1.68.94,1.69.53a52.78,52.78,0,0,0-.52-10.57.1.1,0,0,0-.19,0c-.19,3.26.19,6.54.05,9.82a6.4,6.4,0,0,0-1.59-.63c-.11,0,0,2.31-.06,2.66a.1.1,0,0,1,0,0,4.85,4.85,0,0,1-3.49-1.39C191.24,177.2,191.16,177.26,191.21,177.35Z" style="fill:#263238"></path><path d="M178.54,169.66c3.43.53,5.06-5.59,5.06-5.59s6,0,7.57-4.34c0,0,5,4.44,9.66,3.53s4.88-6.46,4.54-7.59c-.76-2.6-4.89-.06-4.89-.06a21.75,21.75,0,0,0-11.38-4.56c-5.19-.29-8.5,4.12-8.5,4.12s-2.83.15-4,1.94S176.36,169.33,178.54,169.66Z" style="fill:#263238"></path><path d="M182.21,163.9c4.45,1.31,7.94-1.24,9.28-5.49a0,0,0,1,1,.08,0c-.76,4-5.26,8-9.44,5.67A.11.11,0,0,1,182.21,163.9Z" style="fill:#263238"></path><path d="M180.74,155.11s.07.08,0,.09c-1.36.39-2.89.61-4,1.63-1.3,1.23-1.36,3.1-1.2,4.76.24,2.56,1,6,3,7.76.12.1-.05.27-.16.17-2.4-2-3.29-6.37-3.21-9.33C175.31,156.87,177.62,155.34,180.74,155.11Z" style="fill:#263238"></path><path d="M196,161.69a6.32,6.32,0,0,0,7,.91c2.69-1.46,2.67-4.54,2-7.19,0-.13.16-.24.21-.11,1.06,2.41.64,5.77-1.63,7.37a6.6,6.6,0,0,1-7.82-.71C195.57,161.81,195.81,161.54,196,161.69Z" style="fill:#263238"></path><path d="M188.59,176.78a4.72,4.72,0,1,1,5.67-4.83h0a4.72,4.72,0,0,1-4.5,4.93A4.55,4.55,0,0,1,188.59,176.78Zm1.79-8.62a4.26,4.26,0,0,0-1-.08,4.08,4.08,0,1,0,1,.08Z" style="fill:#455a64"></path><path d="M199.38,177.67c-1.76-.36-3-2.51-2.78-5a5.71,5.71,0,0,1,1.28-3.2,3,3,0,0,1,5,.44,5.67,5.67,0,0,1,.7,3.38c-.23,2.59-2,4.56-3.91,4.39ZM200.7,169l-.24,0a2.5,2.5,0,0,0-2.1,1,5,5,0,0,0-1.13,2.84c-.19,2.24.93,4.18,2.52,4.32s3-1.58,3.22-3.82a5,5,0,0,0-.61-3A2.64,2.64,0,0,0,200.7,169Z" style="fill:#455a64"></path><path d="M194.06,172.48l-.36-.51c.76-.54,2.48-1.2,3.52.13l-.5.39C195.79,171.29,194.13,172.43,194.06,172.48Z" style="fill:#455a64"></path><path d="M173,171.86l-.53-.34c.16-.25,1.58-2.43,3-2.54s9.68,1.44,10,1.5l-.12.62c-2.39-.44-8.85-1.56-9.87-1.49S173.39,171.26,173,171.86Z" style="fill:#455a64"></path><path d="M179.88,171.54s-2.22-5.44-4.61-4.76-1.48,8,.81,9.54a2.61,2.61,0,0,0,3.72-.59Z" style="fill:#ad6359"></path><path d="M175.58,168.89s-.06,0,0,.06c1.59,1.11,2.14,2.94,2.4,4.77a1.44,1.44,0,0,0-2-.86s0,.1,0,.11a1.6,1.6,0,0,1,1.59.93,8.09,8.09,0,0,1,.51,1.58c0,.18.35.16.33,0v0C179,173.18,177.93,169.66,175.58,168.89Z" style="fill:#263238"></path><path d="M188.3,192l-4.79,8-8.86-12.5-3.56,3s7.6,18.81,7.79,18.05l4.7-6.79,4.25,5.93,1.66-12.9Z" style="fill:#ebebeb"></path><path d="M189,201.27c.2-2.14.47-4.29.57-6.44,0-.07-.11-.13-.14,0-.76,2-1.48,10.16-1.81,12.1v0c-.18-.26-4-5.26-4-5.2-1,1.05-4.39,6-4.64,6.44-1.2-3-5.9-13.89-7.42-16.78,0-.08-.17,0-.14,0,1,3.11,7.15,17.78,7.29,17.76a83.91,83.91,0,0,0,4.92-7.18c.61,1.06,4.37,6.61,4.44,6.3A68.71,68.71,0,0,0,189,201.27Z" style="fill:#263238"></path></g><g id="freepik--Plant--inject-242"><path d="M74,295.75a34.92,34.92,0,0,1-.68,13.43,36.28,36.28,0,0,1-2.06,5.94c-1.07,2.46-2.18,4.86-1.92,7.55.26.17-.63.14-.66-.12-7.18-4.09-16.4-4.84-21.93-11.53a23,23,0,0,1-4.57-11.2,34,34,0,0,1,.26-13.52c1-3.65,3.08-7.17,6.51-8.95s8.17-1.69,11.89-.53C68.86,279.31,72.85,288,74,295.75Z" style="fill:#5965E0"></path><path d="M77.68,349c-1-3.27-2-6.54-3-9.8-2-6.39-4-12.75-6.29-19q-2-5.66-4.3-11.19A68.33,68.33,0,0,1,65,302c.6-2.78,1.47-5.48,2.28-8.2,0-.17-.22-.26-.29-.1-1.61,3.76-3.72,8.56-3.77,13q-2.62-6.27-5.65-12.36a53,53,0,0,1,.32-10.3c0-.16-.22-.2-.24,0a36.82,36.82,0,0,0-.71,9.09q-2.31-4.57-4.9-9c-.16-.26-.53,0-.39.27,2.7,5.2,5.21,10.51,7.56,15.89a34.69,34.69,0,0,0-11.27-6.52c-.18-.07-.32.19-.13.27A40.92,40.92,0,0,1,60,302q2.53,5.91,4.84,11.91c-4.5-4.41-10.66-7.31-16.61-8.86-.2-.06-.25.26-.06.31,6.89,2.08,12.24,6,17.48,10.68q.91,2.42,1.79,4.86,3.33,9.24,6.34,18.59,1.45,4.47,2.85,9c1,3.22,1.8,6.62,3.1,9.74.13.29.66.23.59-.13A91.23,91.23,0,0,0,77.68,349Z" style="fill:#263238"></path><path d="M65.76,289.46a17.76,17.76,0,0,0-2.59,6.45c0,.06.08.09.1,0a54.92,54.92,0,0,1,2.81-6.33C66.19,289.4,65.88,289.27,65.76,289.46Z" style="fill:#263238"></path><path d="M52.94,304.43a18.93,18.93,0,0,0-6.45-2.17c-.06,0-.1.08,0,.1,1,.43,2.13.73,3.18,1.14s2.08.89,3.14,1.26A.19.19,0,0,0,52.94,304.43Z" style="fill:#263238"></path><path d="M49.32,286.42a12.28,12.28,0,0,0-2.07-1.28.11.11,0,0,0-.12.18,13.33,13.33,0,0,0,2,1.33C49.31,286.73,49.45,286.5,49.32,286.42Z" style="fill:#263238"></path><path d="M98.22,320.16c-5.18,1.53-10.38,2.95-15.56,4.47-.45.14-9.2-16.63-6-25.27a28.2,28.2,0,0,1,17.59-16.69c3.7-1.26,8.24-2.31,12.14-1.45a10.1,10.1,0,0,1,7.06,6.88c1.53,4.43,1,9.73.18,14.26A24.81,24.81,0,0,1,108.51,314C105.76,317.26,102.25,319,98.22,320.16Z" style="fill:#5965E0"></path><path d="M105.72,304.22a68.82,68.82,0,0,1-10.15,4,42.55,42.55,0,0,0-6.77,2.45C91,305.8,93.38,301,95.93,296.3a23.24,23.24,0,0,0,9.38-4.85c.14-.12,0-.32-.19-.21a46.63,46.63,0,0,1-8.85,4.43c.69-1.27,1.38-2.54,2.09-3.81.2-.35-.29-.7-.52-.36a109.31,109.31,0,0,0-7.36,12.35A56.93,56.93,0,0,1,90,292.54c0-.1-.13-.11-.15,0A37.58,37.58,0,0,0,89.93,305c-1.82,3.63-3.47,7.34-5,11.1-.59-2.26-1.35-4.49-1.87-6.76a31.27,31.27,0,0,1-.74-10c0-.09-.13-.1-.15,0a35.17,35.17,0,0,0,2.17,18.29c-.86,2.27-1.69,4.54-2.44,6.81a135.44,135.44,0,0,0-6.87,35.92.22.22,0,0,0,.43,0,177.81,177.81,0,0,1,7.72-35.49c1.5-4.52,3.23-8.9,5.12-13.2,3.06-.9,6.1-2.13,9.11-3.17a28.36,28.36,0,0,0,8.39-4.11A.11.11,0,0,0,105.72,304.22Z" style="fill:#263238"></path><path d="M110.55,299.35c-3.17,1.13-6.17,2.7-9.33,3.85-.15.05-.06.28.09.25a21.24,21.24,0,0,0,9.36-3.92C110.77,299.45,110.66,299.31,110.55,299.35Z" style="fill:#263238"></path><path d="M84.7,292.52c0-.17-.21-.26-.26-.09-.87,2.92-1.47,6-.62,9a.11.11,0,0,0,.22,0C84.19,298.41,84,295.48,84.7,292.52Z" style="fill:#263238"></path><path d="M97.78,285.78a7.74,7.74,0,0,0-1.37,5c0,.11.18.18.21.05.39-1.67,1-3.19,1.54-4.81A.22.22,0,0,0,97.78,285.78Z" style="fill:#263238"></path><path d="M36.65,327.55c1.52,4.82,5.12,11.48,10.83,11.53,3.7,0,7.43-.4,11.14-.46,4-.06,8-.05,11.92.19.33,0-.47-11.9-10-17.7-2.68-1.63-6-2.14-9-2.8a41.78,41.78,0,0,0-10.62-1.11c-2.19.09-4,.56-4.8,2.8S35.92,325.26,36.65,327.55Z" style="fill:#5965E0"></path><path d="M40.76,321.53c2.32.59,4.66,1.28,7,2a22.86,22.86,0,0,0-1.93-1.88c-1-.83-2.1-1.49-3.17-2.22-.09-.06,0-.24.08-.19a13,13,0,0,1,5.63,4.48c2.91.94,5.78,2,8.55,3.11a31.58,31.58,0,0,1,5.47,2.88,22.66,22.66,0,0,0-2-3.45c-1.27-1.64-3-2.55-4.64-3.72a.15.15,0,1,1,.15-.25,13.55,13.55,0,0,1,7.44,8.07,31.75,31.75,0,0,1,5.42,4.92c6.32,7.18,11.3,16.73,11.31,26.47,0,.23-.37.3-.41.06a54.16,54.16,0,0,0-12-25.89c-.45-.52-.92-1-1.39-1.51A43.35,43.35,0,0,0,61,334c-2,0-4,.3-6.08.46-3.33.27-7,.31-10-1.36-.14-.08,0-.31.1-.25,6.71,2.43,13.74-.66,20.46.8a31.52,31.52,0,0,0-9.91-6.4l-.62-.24c-4.3.51-8.85,1.64-13,.24a.1.1,0,0,1,.06-.2c4,1,7.93-.26,11.93-.46-4.35-1.7-8.79-3.05-13.15-4.73C40.37,321.76,40.36,321.42,40.76,321.53Z" style="fill:#263238"></path><path d="M38.86,325.76a57.15,57.15,0,0,0,6.26.48,0,0,0,0,1,0,.09,13,13,0,0,1-6.31-.41C38.71,325.89,38.76,325.75,38.86,325.76Z" style="fill:#263238"></path><path d="M53,321.63a10.24,10.24,0,0,1,3.1,2.16c.11.09,0,.29-.15.2-.53-.38-1.07-.74-1.62-1.09a16,16,0,0,1-1.51-1A.19.19,0,0,1,53,321.63Z" style="fill:#263238"></path><path d="M86.73,337.14c-.07.16.15.31.24.14h0a.27.27,0,0,0,.15.1,96.54,96.54,0,0,0,11.67,2c3.15.28,6.79.46,9.56-1.38,3.74-2.48,6.21-9.12,4.18-13.34-2.39-5-9.61-2.29-13.24-.51A26.55,26.55,0,0,0,86.73,337.14Z" style="fill:#5965E0"></path><path d="M83.92,339.45a38.18,38.18,0,0,1,7-5.3A23.8,23.8,0,0,1,98,327c.13-.09.25.12.12.22a32.33,32.33,0,0,0-6,6.26,66.84,66.84,0,0,1,8.74-4,11.65,11.65,0,0,1,4.7-4.71s.08,0,.05.07a19.08,19.08,0,0,0-4.25,4.45c1.78-.67,3.57-1.28,5.37-1.88.16-.05.22.19.07.25-3.2,1.25-6.46,2.57-9.62,4.08a37,37,0,0,0,11.64,0c.11,0,.16.13,0,.16a22.92,22.92,0,0,1-12.35.19,56.73,56.73,0,0,0-5.86,3.28,14.65,14.65,0,0,1,4.73.39,36,36,0,0,0,8.33.94c.1,0,.13.17,0,.19-4.83.83-9.39-1.36-14.18-.79a36,36,0,0,0-5,4.07,37.32,37.32,0,0,0-7.27,10.25c-2,4.1-3.11,8.45-4.74,12.69a.15.15,0,0,1-.29-.09C73.68,354.62,77.84,345.41,83.92,339.45Z" style="fill:#263238"></path><path d="M98.49,328a5.4,5.4,0,0,1,1.23-1.5,5,5,0,0,1,1.43-1.07s.07.05,0,.08c-.4.45-1,.78-1.38,1.21s-.78.94-1.22,1.37C98.54,328.15,98.45,328.07,98.49,328Z" style="fill:#263238"></path><path d="M106.45,330.59c.72-.18,1.47-.16,2.2-.31s1.42-.42,2.14-.64a.08.08,0,0,1,.06.15,7.06,7.06,0,0,1-4.4,1A.12.12,0,0,1,106.45,330.59Z" style="fill:#263238"></path><polygon points="64.03 352.68 64.66 359.88 66.81 384.18 85.84 384.18 88.53 359.88 89.33 352.68 64.03 352.68" style="fill:#37474f"></polygon><polygon points="64.03 352.68 64.66 359.88 88.53 359.88 89.33 352.68 64.03 352.68" style="fill:#263238"></polygon><rect x="62.14" y="350.72" width="29.07" height="5.84" transform="translate(153.36 707.27) rotate(180)" style="fill:#37474f"></rect></g><g id="freepik--Desk--inject-242"><rect x="344.2" y="263.71" width="70.28" height="167.25" style="fill:#37474f"></rect><rect x="85.52" y="263.71" width="70.28" height="167.25" style="fill:#455a64"></rect><rect x="155.8" y="263.71" width="258.68" height="21.84" style="fill:#455a64"></rect><polygon points="156.25 274.63 188.53 274.45 220.81 274.38 285.37 274.26 349.92 274.38 382.2 274.45 414.48 274.63 382.2 274.81 349.92 274.88 285.37 275 220.81 274.88 188.53 274.81 156.25 274.63" style="fill:#263238"></polygon><rect x="155.8" y="263.71" width="9.45" height="167.25" style="fill:#37474f"></rect><rect x="405.03" y="263.71" width="9.45" height="167.25" style="fill:#455a64"></rect></g><g id="freepik--Device--inject-242"><rect x="229.92" y="259.83" width="3.77" height="2.46" style="fill:#dbdbdb"></rect><rect x="234.82" y="259.67" width="3.77" height="2.46" style="fill:#dbdbdb"></rect><rect x="239.71" y="259.51" width="3.77" height="2.46" style="fill:#dbdbdb"></rect><rect x="244.6" y="259.34" width="3.77" height="2.46" style="fill:#dbdbdb"></rect><rect x="249.49" y="259.18" width="3.77" height="2.46" style="fill:#dbdbdb"></rect><rect x="254.38" y="259.02" width="3.77" height="2.46" style="fill:#dbdbdb"></rect><rect x="259.28" y="258.86" width="3.77" height="2.46" style="fill:#dbdbdb"></rect><rect x="264.17" y="258.69" width="3.77" height="2.46" style="fill:#dbdbdb"></rect><rect x="269.06" y="258.53" width="3.77" height="2.46" style="fill:#dbdbdb"></rect><polygon points="273.76 263.71 229 263.71 229 260.72 273.76 259.47 273.76 263.71" style="fill:#c7c7c7"></polygon><polygon points="342.04 247.99 261.15 247.99 274.01 187.76 354.9 187.76 342.04 247.99" style="fill:#dbdbdb"></polygon><polygon points="345.03 247.99 264.14 247.99 277 187.76 357.89 187.76 345.03 247.99" style="fill:#c7c7c7"></polygon><path d="M318,214.39a6.09,6.09,0,0,1-5.8,5,4.16,4.16,0,0,1-4.2-5,6.08,6.08,0,0,1,5.79-5A4.17,4.17,0,0,1,318,214.39Z" style="fill:#a6a6a6"></path><polygon points="322.15 263.71 282.37 263.71 282.37 260.62 322.15 259.34 322.15 263.71" style="fill:#dbdbdb"></polygon><polygon points="332.97 263.71 311.61 263.71 298.75 229.96 320.11 229.96 332.97 263.71" style="fill:#dbdbdb"></polygon><polygon points="336.49 263.71 315.13 263.71 302.26 229.96 323.62 229.96 336.49 263.71" style="fill:#a6a6a6"></polygon><path d="M207.5,263.71H177.57c-2.56,0,1.14-7.27,10.46-10.06S210.44,261,207.5,263.71Z" style="fill:#c7c7c7"></path><path d="M195.75,263.71a7.25,7.25,0,0,1,.26-2.49,9.22,9.22,0,0,1,1-2.34,7.66,7.66,0,0,1,1.65-1.94,6.21,6.21,0,0,1,2.22-1.19,17.49,17.49,0,0,0-1.75,1.68,12.28,12.28,0,0,0-1.38,1.9A23.57,23.57,0,0,0,195.75,263.71Z" style="fill:#a6a6a6"></path><path d="M199.3,256.79a12.47,12.47,0,0,1,2.66.91,16.49,16.49,0,0,1,2.45,1.4,9.67,9.67,0,0,1,2.08,2,4.06,4.06,0,0,1,1,2.65A6,6,0,0,0,206,261.5a16.32,16.32,0,0,0-2.08-1.69C202.44,258.75,200.87,257.83,199.3,256.79Z" style="fill:#a6a6a6"></path></g><g id="freepik--Books--inject-242"><rect x="350.39" y="252.93" width="54.63" height="10.78" style="fill:#5965E0"></rect><rect x="353.79" y="252.93" width="5.34" height="10.78" style="fill:#37474f"></rect><rect x="361.11" y="252.93" width="2.23" height="10.78" style="fill:#37474f"></rect><rect x="393.26" y="252.93" width="5.34" height="10.78" style="fill:#37474f"></rect><rect x="347.22" y="244.89" width="37.9" height="8.04" style="fill:#455a64"></rect><rect x="385.12" y="244.89" width="16.35" height="8.04" style="fill:#455a64"></rect><rect x="347.22" y="245.72" width="37.9" height="6.37" style="fill:#fff"></rect><path d="M349.67,247c3-.09,5.91-.16,8.86-.19l8.86-.06,8.86.06c3,0,5.91.1,8.87.19-3,.09-5.91.16-8.87.19l-8.86.06-8.86-.06C355.58,247.19,352.63,247.12,349.67,247Z" style="fill:#dbdbdb"></path><path d="M349.67,248.28c3-.09,5.91-.16,8.86-.19l8.86-.06,8.86.06c3,0,5.91.1,8.87.19-3,.1-5.91.16-8.87.2l-8.86.05-8.86-.06C355.58,248.44,352.63,248.37,349.67,248.28Z" style="fill:#dbdbdb"></path><path d="M349.67,249.53q4.44-.14,8.86-.19l8.86-.06,8.86.06c3,0,5.91.1,8.87.19-3,.1-5.91.16-8.87.2l-8.86.05-8.86-.06C355.58,249.69,352.63,249.62,349.67,249.53Z" style="fill:#dbdbdb"></path><path d="M349.67,250.78q4.44-.14,8.86-.19l8.86-.06,8.86.06c3,0,5.91.1,8.87.19-3,.1-5.91.16-8.87.2l-8.86.05-8.86-.05C355.58,250.94,352.63,250.88,349.67,250.78Z" style="fill:#dbdbdb"></path><rect x="355.72" y="236.07" width="37.93" height="8.81" style="fill:#37474f"></rect><rect x="386.09" y="236.07" width="3.53" height="8.81" style="fill:#5965E0"></rect><rect x="382.4" y="236.07" width="1.37" height="8.81" style="fill:#5965E0"></rect></g><g id="freepik--Mug--inject-242"><path d="M145.77,243.57s11.84-5.45,11.84-12.77-15.35-12-15.35-17.73S149,204,149,204s-10.57,3.61-10.57,10.84S148.5,227,149.47,231.56C150.81,238,145.77,243.57,145.77,243.57Z" style="fill:#dbdbdb;opacity:0.6000000000000001"></path><path d="M146.36,243.57s-11.84-4.29-11.84-10,15.35-9.45,15.35-13.94-6.7-7.13-6.7-7.13,10.58,2.84,10.58,8.52-11.62,9.59-12.45,14.21S146.36,243.57,146.36,243.57Z" style="fill:#dbdbdb;opacity:0.6000000000000001"></path><rect x="140.27" y="261.96" width="11.26" height="1.76" style="fill:#37474f"></rect><rect x="140.27" y="261.96" width="11.26" height="1.16" style="fill:#263238"></rect><path d="M126.9,257.23a6.37,6.37,0,0,0,6.34,2.71,5.81,5.81,0,0,0,1.14-.33,7.83,7.83,0,0,0,1.59-.83l-1.43-2.12a6.13,6.13,0,0,1-.84.48,3.76,3.76,0,0,1-4.72-1.39c-1.54-2.17-2.09-7.12-.53-9,.1-.14.56-.36,2.37,0,.34.08.71.16,1.14.28a4.34,4.34,0,0,0,1,.22l0-1.27.12-1.27-.53-.14a16.13,16.13,0,0,0-2.56-.53,3.92,3.92,0,0,0-3.6,1.07C123.93,248.22,125,254.51,126.9,257.23Z" style="fill:#37474f"></path><path d="M134.54,256.66a6.13,6.13,0,0,1-.84.48l.68,2.47a7.83,7.83,0,0,0,1.59-.83Z" style="fill:#263238"></path><path d="M130.07,244l.75,2.71c.34.08.71.16,1.14.28a4.34,4.34,0,0,0,1,.22l0-1.27.12-1.27-.53-.14A16.13,16.13,0,0,0,130.07,244Z" style="fill:#263238"></path><path d="M160.88,240.71s-1.35,11.47-3.69,16.31-5.59,5.37-7.61,5.37h-7.37c-2,0-5.28-.54-7.61-5.37s-3.68-16.31-3.68-16.31Z" style="fill:#37474f"></path><path d="M135.81,244a1.33,1.33,0,1,1-1.33-1.32A1.33,1.33,0,0,1,135.81,244Zm10.4-1.6a1.33,1.33,0,1,0,1.33,1.33A1.33,1.33,0,0,0,146.21,242.38Zm0,16.7a1.33,1.33,0,1,0,1.33,1.33A1.34,1.34,0,0,0,146.21,259.08Zm9.65-7.53a1.33,1.33,0,1,0,1.33,1.33A1.32,1.32,0,0,0,155.86,251.55Zm-14.78,3.93a1.33,1.33,0,1,0,1.33,1.33A1.32,1.32,0,0,0,141.08,255.48Zm15.62-13.1a1.33,1.33,0,1,0,1.33,1.33A1.32,1.32,0,0,0,156.7,242.38Zm-10.64,9a1.33,1.33,0,1,0,1.33,1.33A1.32,1.32,0,0,0,146.06,251.34Zm-10.09.21a1.33,1.33,0,1,0,1.33,1.33A1.33,1.33,0,0,0,136,251.55Zm15.56-4.45a1.33,1.33,0,1,0,1.33,1.33A1.32,1.32,0,0,0,151.53,247.1Zm-.37,8.59a1.33,1.33,0,1,0,1.33,1.33A1.34,1.34,0,0,0,151.16,255.69Zm-10.71-8.59a1.33,1.33,0,1,0,1.33,1.33A1.33,1.33,0,0,0,140.45,247.1Z" style="fill:#455a64"></path></g><g id="freepik--trash-can--inject-242"><path d="M322.42,432.38c1.35.44,2.56,1.43,3.32.11s2.84-.93,3.61-1.21,1.85-2.51,1.8-3.2-.63-1.41-.64-2.07,0-1.63-.12-2.54a3,3,0,0,0-1.57-2.86,7,7,0,0,0-3.11-.5c-.89-.09-1.54-1.51-3.31-2.05s-4.07,1.43-4.27,2.22-.37,3.19-1,4.08-1.57.6-1.73,1.71-.1,2.95.22,3.28,1.19-.17,1.58.5.75,2.44,1.55,2.84S321.38,432,322.42,432.38Z" style="fill:#ebebeb"></path><polygon points="307.77 378.4 306.05 380.13 305.99 379.5 305.99 379.49 307.09 378.4 307.77 378.4" style="fill:#263238"></polygon><polygon points="314.29 378.4 308.44 384.29 306.55 386.16 306.52 385.76 306.52 385.75 306.5 385.54 308.09 383.94 313.66 378.4 314.29 378.4" style="fill:#263238"></polygon><polygon points="320.82 378.4 311.71 387.57 307.07 392.18 307.06 392.08 307.02 391.58 311.36 387.21 320.23 378.4 320.82 378.4" style="fill:#263238"></polygon><polygon points="327.35 378.4 314.99 390.83 307.58 398.19 307.53 397.63 314.63 390.49 326.79 378.4 327.35 378.4" style="fill:#263238"></polygon><path d="M333.85,378.4c-.88.91-1.77,1.81-2.66,2.71l-12.93,13-10.17,10.11,0-.54,9.86-9.93,13-12.92c.82-.82,1.65-1.63,2.48-2.44Z" style="fill:#263238"></path><path d="M340.35,378.4q-2.94,3-5.89,6l-12.92,13L308.6,410.24l0-.5L321.18,397l13-12.93,5.8-5.71Z" style="fill:#263238"></path><path d="M346.81,378.4q-4.51,4.65-9.08,9.26l-12.92,13-13,12.93c-.89.89-1.79,1.77-2.69,2.65l0-.42c.81-.84,1.64-1.67,2.46-2.5l12.93-13,13-12.92q4.56-4.51,9.16-9Z" style="fill:#263238"></path><path d="M353.18,378.47v0q-6.06,6.24-12.17,12.42l-12.93,13-13,12.92-5.46,5.37,0-.33q2.6-2.65,5.22-5.31l12.92-13,13-12.92Q346.92,384.54,353.18,378.47Z" style="fill:#263238"></path><path d="M352.59,385.52v0l0,.22h0q-4.14,4.23-8.29,8.44l-12.92,13-13,12.93q-4.1,4-8.23,8.08v0l0-.2q4-4.08,8-8.13l12.92-13,13-12.93Q348.29,389.72,352.59,385.52Z" style="fill:#263238"></path><path d="M352,392.58l0,.44-4.39,4.46-12.93,13-13,12.92q-5.31,5.25-10.67,10.46h-.12q5.22-5.4,10.51-10.73l12.93-13,13-12.92Z" style="fill:#263238"></path><path d="M351.39,399.66l-.05.57-.51.52-12.92,13-13,12.92q-3.64,3.61-7.31,7.19h-.29q3.66-3.74,7.33-7.46l12.92-13,13-12.93Z" style="fill:#263238"></path><path d="M350.78,406.79l0,.63L341.18,417l-13,12.93-4,3.91h-.42q2.06-2.1,4.12-4.18l12.93-13Z" style="fill:#263238"></path><path d="M350.18,413.91l-.06.69-5.67,5.71-13,12.92-.65.64h-.52l.9-.91,12.92-13Z" style="fill:#263238"></path><polygon points="349.57 421.04 349.51 421.79 347.73 423.58 337.37 433.87 336.8 433.87 347.37 423.23 349.57 421.04" style="fill:#263238"></polygon><polygon points="348.97 428.19 348.97 428.22 348.91 428.94 343.95 433.87 343.33 433.87 348.97 428.19" style="fill:#263238"></polygon><polygon points="353.1 379.49 353.04 380.14 351.32 378.4 352 378.4 353.1 379.49" style="fill:#263238"></polygon><polygon points="352.59 385.54 352.53 386.16 350.65 384.29 344.79 378.4 345.43 378.4 351 383.94 352.59 385.54" style="fill:#263238"></polygon><polygon points="352.07 391.58 352.03 392.08 352.02 392.19 347.37 387.57 338.26 378.4 338.86 378.4 347.73 387.21 352.07 391.58" style="fill:#263238"></polygon><polygon points="351.56 397.64 351.51 398.21 344.1 390.83 331.74 378.4 332.29 378.4 344.45 390.49 351.56 397.64" style="fill:#263238"></polygon><path d="M351.05,403.7l-.05.53-10.17-10.11-12.93-13c-.89-.9-1.78-1.8-2.66-2.71h.45c.83.81,1.66,1.62,2.48,2.44l13,12.92Z" style="fill:#263238"></path><path d="M350.53,409.74l0,.5-12.94-12.85-12.92-13q-3-3-5.89-6h.36l5.8,5.71,13,12.93Z" style="fill:#263238"></path><path d="M350,415.82l0,.43-2.7-2.66-13-12.93-12.93-13q-4.55-4.62-9.07-9.26h.19q4.59,4.47,9.16,9l13,12.92,12.93,13Z" style="fill:#263238"></path><path d="M349.5,421.9l0,.33c-1.83-1.77-3.65-3.57-5.47-5.37l-13-12.92-12.92-13q-6.12-6.18-12.17-12.42v0q6.25,6.07,12.44,12.19l13,12.92,12.92,13Q346.91,419.25,349.5,421.9Z" style="fill:#263238"></path><path d="M349,428l0,.23q-4.14-4-8.23-8.08l-13-12.93-12.92-13q-4.15-4.2-8.29-8.44h0l0-.24q4.31,4.19,8.58,8.41l13,12.93,12.93,13Q345,423.91,349,428Z" style="fill:#263238"></path><path d="M348.25,433.87h-.12q-5.36-5.21-10.67-10.46l-13-12.92-12.93-13L307.14,393l0-.44q2.36,2.31,4.7,4.63l13,12.92,12.92,13C341.25,426.7,344.77,430.27,348.25,433.87Z" style="fill:#263238"></path><path d="M341.79,433.87h-.29q-3.67-3.58-7.31-7.19l-13-12.92-12.92-13-.51-.52-.05-.56c.28.26.55.54.83.81l13,12.93,12.92,13Q338.14,430.13,341.79,433.87Z" style="fill:#263238"></path><path d="M335.3,433.87h-.41q-2-2-4-3.91l-13-12.93-9.55-9.6-.05-.64,9.95,9.89,12.93,13C332.56,431.08,333.94,432.47,335.3,433.87Z" style="fill:#263238"></path><path d="M328.81,433.87h-.52l-.65-.64-13-12.92-5.66-5.7-.06-.7,6.08,6,12.92,13Z" style="fill:#263238"></path><polygon points="322.29 433.87 321.72 433.87 311.36 423.58 309.58 421.79 309.58 421.77 309.51 421.05 311.71 423.23 322.29 433.87" style="fill:#263238"></polygon><polygon points="315.76 433.87 315.14 433.87 310.18 428.94 310.12 428.19 315.76 433.87" style="fill:#263238"></polygon><rect x="307.93" y="378.39" width="1" height="55.59" transform="translate(-35.63 29.7) rotate(-5.21)" style="fill:#263238"></rect><rect x="322.98" y="405.69" width="55.59" height="1" transform="translate(-85.89 718.21) rotate(-84.73)" style="fill:#263238"></rect><rect x="302.98" y="372.34" width="53.04" height="8.98" style="fill:#263238"></rect><rect x="308.45" y="429.06" width="42.1" height="8.98" style="fill:#263238"></rect><path d="M346.85,425.68c1.6-.23,3.64-.23,3.76.68s-.61,1.41-.38,1.86a18.78,18.78,0,0,0,2.12,1.9,4.45,4.45,0,0,1,1.07,1.9c0,.23.38.61,0,1.06s-.6,1.14-.91,1.48a.91.91,0,0,0,0,1.33c.45.61.07,2.35-.61,3s-2.66-.83-3.26-.68-.69.45-1.22.83a5.93,5.93,0,0,1-3.19,1.29c-1.36,0-2.05-1.21-2.88-1.74a11.49,11.49,0,0,0-2.36-.91,4.42,4.42,0,0,1-1.74-1.29c-.15-.31-.68-.38-.46-1.22s.61-1.06.61-1.74,0-.81,0-1.58-.62-2.14-.09-2.75.92-1.52,1.75-1.52,3.49.46,3.49.46a6.93,6.93,0,0,0,.76-1,2.2,2.2,0,0,1,1.84-1.06A5.68,5.68,0,0,0,346.85,425.68Z" style="fill:#fff"></path><path d="M337.4,433.39c1.09.5,2.19.95,3.3,1.38s2.21.91,3.32,1.32a30.86,30.86,0,0,0,3.34,1.08,2.49,2.49,0,0,0,.69.08l.67-.34a11,11,0,0,0,1.45-.89,4,4,0,0,0,1.11-1.13,2.49,2.49,0,0,0,.16-.33l.05-.16,0-.08h0a1.3,1.3,0,0,0-.29-.51,16.93,16.93,0,0,0-2.6-2.27c-.95-.7-1.94-1.37-2.94-2-.5-.33-1-.64-1.52-.93-.26-.15-.52-.29-.79-.42L343,428c-.13,0-.31-.14-.41,0,.09-.14.29-.06.43-.05a3.6,3.6,0,0,1,.44.12c.28.09.56.2.84.32.56.23,1.11.48,1.65.74,1.07.55,2.11,1.14,3.13,1.79a13.58,13.58,0,0,1,2.9,2.3,1.88,1.88,0,0,1,.52,1,.91.91,0,0,1,0,.23l0,.14-.08.26a3,3,0,0,1-.23.48,4.92,4.92,0,0,1-1.35,1.44,11.49,11.49,0,0,1-1.6,1l-.41.2-.21.1-.11.05-.22.07a2.89,2.89,0,0,1-1.08-.11,22.06,22.06,0,0,1-3.41-1.3A45.85,45.85,0,0,1,337.4,433.39Z" style="fill:#c7c7c7"></path><path d="M341.93,435.44a20.16,20.16,0,0,1,2-2.62c.36-.42.74-.81,1.13-1.2.2-.19.42-.37.63-.56a3.82,3.82,0,0,1,.8-.53l.15,0a.86.86,0,0,1,.32,0,.76.76,0,0,1,.42.22,3.06,3.06,0,0,1,.31.38,7.34,7.34,0,0,1,.46.73c.26.49.52,1,.74,1.48a13.44,13.44,0,0,1,1,3.12l-1.72-2.76c-.29-.45-.56-.91-.86-1.35-.14-.22-.28-.44-.43-.63s-.15-.18-.21-.25,0,0,.08,0a.14.14,0,0,0,.11,0l0,0a3,3,0,0,0-.56.37l-.6.49-1.22,1.05C343.64,434.08,342.82,434.79,341.93,435.44Z" style="fill:#c7c7c7"></path><path d="M321.75,442c-.87.21-2,.32-2.1-.18s.26-.8.11-1a10,10,0,0,0-1.26-.94,2.48,2.48,0,0,1-.68-1c0-.13-.24-.31-.05-.58s.26-.66.42-.86a.5.5,0,0,0-.07-.73,1.62,1.62,0,0,1,.18-1.65c.35-.37,1.5.32,1.83.2s.35-.28.62-.51a3.22,3.22,0,0,1,1.68-.88c.75-.07,1.18.56,1.67.81a6.2,6.2,0,0,0,1.34.38,2.38,2.38,0,0,1,1,.62c.1.16.39.17.31.64s-.28.61-.24,1,0,.44.08.86.44,1.15.18,1.51-.42.87-.88.92-1.93-.07-1.93-.07a4,4,0,0,0-.37.58,1.22,1.22,0,0,1-.95.67A3.05,3.05,0,0,0,321.75,442Z" style="fill:#fff"></path><path d="M318.44,437.15c.47-.49,1-.93,1.43-1.4l.36-.33.19-.16a.87.87,0,0,1,.37-.18,5,5,0,0,1,1.06-.14,10.32,10.32,0,0,1,2.07.12,3.47,3.47,0,0,1,1.11.34,1.17,1.17,0,0,1,.49.68,2.12,2.12,0,0,1,.08.64,6.45,6.45,0,0,1-.47,2.09,6.92,6.92,0,0,1-.44,1,4.1,4.1,0,0,1-.3.47,1.14,1.14,0,0,1-.55.43,5.07,5.07,0,0,1-2.13.14,13.14,13.14,0,0,1-2-.35c.67,0,1.33-.06,2-.14a5.92,5.92,0,0,0,1.8-.36c.13-.06.1-.06.19-.2s.14-.25.21-.39a7.63,7.63,0,0,0,.33-.88,6.19,6.19,0,0,0,.36-1.78.67.67,0,0,1,.23-.47,5.71,5.71,0,0,0-1.09-.25,13.17,13.17,0,0,0-1.9-.27,5.65,5.65,0,0,0-.92,0c-.06,0-.12,0-.09,0l-.21.14-.43.27C319.6,436.47,319,436.84,318.44,437.15Z" style="fill:#c7c7c7"></path><path d="M320.51,435.87c0,.64,0,1.26.06,1.82,0,.26.08.58.15.6s0,0,0,0,0,0,.05,0a2.68,2.68,0,0,0,.35,0c.54-.08,1.12-.25,1.71-.37a12.94,12.94,0,0,1,1.83-.3,7.25,7.25,0,0,1-1.57,1,7,7,0,0,1-1.81.62,3.38,3.38,0,0,1-.57,0,1.22,1.22,0,0,1-.38-.09.88.88,0,0,1-.36-.32,1.69,1.69,0,0,1-.16-1.18A4.71,4.71,0,0,1,320.51,435.87Z" style="fill:#c7c7c7"></path><path d="M314.5,429c-.44-1.35-.36-2.91-1.88-2.75s-2.43-1.73-3.11-2.19-3.12,0-3.65.46-.76,1.34-1.29,1.73-1.29,1-2,1.61a3,3,0,0,0-1.37,3,6.94,6.94,0,0,0,1.44,2.8c.46.77-.3,2.13.31,3.88s3.57,2.43,4.32,2.13,2.79-1.6,3.9-1.6,1.42.91,2.41.38,2.42-1.67,2.5-2.12-.83-.86-.53-1.57,1.52-2.05,1.37-2.93S314.84,430,314.5,429Z" style="fill:#fff"></path><path d="M311.69,426.1a44.34,44.34,0,0,0-5.48,2.18,3.15,3.15,0,0,0-.54.37c-.07,0-.12.34-.16.55-.08.48-.14,1-.19,1.45a29,29,0,0,0-.18,2.93,9.05,9.05,0,0,0,.07,1.4,1.26,1.26,0,0,0,.1.38,1.8,1.8,0,0,0,.54.17,15.85,15.85,0,0,0,2.86.14,13.15,13.15,0,0,0,1.42-.12c.41-.06,1-.2,1.43-.28,1-.2,1.94-.38,2.87-.62.22-.07.46-.12.65-.2l.11,0s.05,0,0,0a.15.15,0,0,0-.07.09.47.47,0,0,0,0,.36.31.31,0,0,0,.1.17l.05.05h0l-.13-.05c-.42-.14-.91-.26-1.39-.37l-2.88-.64c-1-.22-1.94-.43-2.91-.67-.48-.13-1-.25-1.45-.42a2.71,2.71,0,0,1-.82-.43l-.08-.1a.77.77,0,0,1-.08-.19V432a.87.87,0,0,1,.05-.27,2.65,2.65,0,0,1,.18-.41,12.46,12.46,0,0,1,1.88-2.41c.18-.18.36-.36.55-.53a3.61,3.61,0,0,1,.3-.25,1,1,0,0,1,.16-.12.55.55,0,0,1,.25-.13.75.75,0,0,1,.57.14,2.78,2.78,0,0,1,.32.26,5.58,5.58,0,0,1,.53.56,37.82,37.82,0,0,1,3.23,5,45,45,0,0,0-3.6-4.68,6,6,0,0,0-.51-.5,1.12,1.12,0,0,0-.39-.25c.06,0,0,0-.07.05l-.13.11-.25.23c-.17.17-.34.35-.5.53a12,12,0,0,0-1.65,2.32c0,.1-.09.21-.11.28s0,.1,0,.09h0l0-.1,0,0a2.5,2.5,0,0,0,.51.2c.45.14.93.26,1.4.38,1,.22,1.92.42,2.89.62l3.7.71c.49.11.17.1.69.26a1.19,1.19,0,0,1,.22.08.76.76,0,0,1,.15.08l.13.11a.62.62,0,0,1,.12.2.59.59,0,0,1,0,.41.87.87,0,0,1-.21.22l-.13.08a1.33,1.33,0,0,1-.23.1,6.59,6.59,0,0,1-.76.24c-1,.24-2,.41-2.94.59-.51.09-.91.19-1.48.28s-1,.08-1.53.09a15,15,0,0,1-3.05-.2,2.2,2.2,0,0,1-.86-.31,1,1,0,0,1-.35-.52,1.87,1.87,0,0,1-.08-.44,9,9,0,0,1,0-1.55c.05-1,.18-2,.32-3,.08-.49.16-1,.27-1.48.09-.25,0-.48.33-.81a3,3,0,0,1,.7-.43,25,25,0,0,1,2.83-1C309.77,426.57,310.72,426.3,311.69,426.1Z" style="fill:#c7c7c7"></path></g></svg>